<svg xmlns="http://www.w3.org/2000/svg" viewBox="0 0 1125 2436"><defs><style>.cls-1{isolation:isolate;}.cls-2{fill:#b9b9b9;}.cls-3{fill:#a6ddeb;}.cls-4{fill:#66c8ce;}.cls-5{fill:#f1b5ab;}.cls-6{fill:#235daa;}.cls-7{fill:#90d6e9;}.cls-8{fill:#263b7f;}.cls-9{fill:#d24c27;}.cls-10{fill:#721813;}.cls-11{fill:#983222;}.cls-12{fill:#f5948d;}.cls-13{fill:#fff;}.cls-14{fill:#1e1724;}.cls-15{fill:#05509c;}.cls-16{fill:#661513;}.cls-17{fill:#212a60;}.cls-18{fill:#7a1715;}.cls-19{fill:#f79738;}.cls-20{fill:#e18726;}.cls-21{fill:#cc4527;}.cls-22{fill:#654526;}.cls-23{fill:#1e2d58;}.cls-24{fill:#d64e27;}.cls-25{fill:#51351b;}.cls-26{fill:#aa2423;}.cls-27{fill:#761815;}.cls-28{fill:#4f331b;}.cls-29{fill:#b75349;}.cls-30{fill:#1da8b7;}.cls-31{fill:#732723;}.cls-32{fill:#a6d6b4;}.cls-33{fill:#63c4ba;}.cls-34{fill:#d0918e;}.cls-35{fill:#b97b7b;}.cls-36{fill:#ffc40c;}.cls-37{fill:#f7981d;}.cls-38{fill:#dd8426;}.cls-39{fill:#ea6b24;}.cls-40{fill:#845857;opacity:0.4;mix-blend-mode:multiply;}.cls-41{fill:#f5a42a;}.cls-42{fill:#93d6e8;}.cls-43{fill:#3a68b1;}.cls-44{fill:#416db4;}.cls-45{fill:#055257;}.cls-46{fill:#014245;}.cls-47{fill:#c23827;}.cls-48{fill:#0d64a5;}.cls-49{fill:#2b91be;}.cls-50{fill:#1e7ea0;}.cls-51{fill:#0c6f88;}.cls-52{fill:#0b9399;}.cls-53{fill:#77c7d7;}.cls-54{fill:#675352;}.cls-55{fill:#f06080;}.cls-56{fill:#b72d4c;}.cls-57{fill:#ed3455;}.cls-58{fill:#eb5729;}</style></defs><g class="cls-1"><g id="Layer_1" data-name="Layer 1"><path class="cls-2" d="M1125.5,1354c-39.92-8.32-99.26-27.55-138.89-79.11-57.71-75.08-27.1-150.65-70-233.23C890.68,991.59,833.89,932.86,698,897c-235.23,25.3-325.53-21.94-360.89-77.27C275.47,723.29,383.46,606.53,312,475c-53.22-97.95-139.54-81.86-223-180C37.58,234.53-14.61,128.52,1.37-69H1125.5Z"/><path class="cls-3" d="M774,1165.93a92.94,92.94,0,0,1-12.82,2c-10,1.09-24.49,2.22-40,3-14.81.77-30.48,1.2-43.93,1-1.18,0-2.35,0-3.52-.08-12.52-.31-22.15-.85-29.42-1.37-2.83-.21-5.32-.43-7.46-.64-8.3-.81-11.56-1.5-11.56-1.5-1.88-8.47,15.28-113.16,20.7-131.73s25-45.42,25-45.42c.17-2.78.46-6,.79-9.38.85-8.25,2.11-17.9,3.37-26.79,2.13-15,4.23-27.72,4.23-27.72,35.52,1,51.6-3.27,51.62-3.29s1.66,3.49,3.58,8h0c2.89,6.79,6.41,15.89,5.71,18.72-.84,3.39-5.28,8.59-7.7,11.23-1,1.07-1.61,1.7-1.61,1.7.59,7.77,10.26,74.11,17.79,100S774,1165.93,774,1165.93Z"/><path class="cls-4" d="M740.38,950.7c-.84,3.39-5.28,8.59-7.7,11.23-10.13,3.23-11.62.27-11.62.27,14.21-4,13.86-25.51,13.61-30.22C737.56,938.77,741.08,947.87,740.38,950.7Z"/><path class="cls-4" d="M695.11,962.2s-7.92,9.71-17.78,5.35c0,0-.87,25.7-2.79,30.53s-17.9,35.58-26.84,87c-6.56,37.8-9.61,70.19-10.77,84.7-8.3-.81-11.56-1.5-11.56-1.5-1.88-8.47,15.28-113.16,20.7-131.73s25-45.42,25-45.42c.17-2.78.46-6,.79-9.38.85-8.25,2.11-17.9,3.37-26.79A23.54,23.54,0,0,0,695.11,962.2Z"/><path class="cls-5" d="M651.72,1025.28s-1.66,6.6-4,7.29-14.81-11.77-30.35-27.53-29.86-36.7-29.86-36.7c3.51-12.46,34.56-49.62,34.56-49.62A49.75,49.75,0,0,1,636,930.47a59.18,59.18,0,0,1,3.59,4.89c4.1,6.19,4.87,10.17,4.87,10.17-7.52,10.12-23,20.47-23,20.47s10.91,19.12,17,30.4a.06.06,0,0,1,0,0c.26.44.51.88.74,1.31A286.81,286.81,0,0,1,651.72,1025.28Z"/><path class="cls-6" d="M731.07,924a77.67,77.67,0,0,1-9.33,1.66l-1.85.24a261.55,261.55,0,0,1-33.06,1.55l-1.89,0c-1.78,0-3.6-.07-5.49-.14,0,0-2.12,12.86-4.27,27.91-1.1,7.87-2.22,16.34-3,23.88-.09.92-.19,1.84-.28,2.72-.13-.59-.28-1.2-.43-1.85-4.16-17.69-12-50.86-12-50.86-3.76,5.34-15,16.46-15,16.46s-1.71-4-4.21-8.49a60.93,60.93,0,0,0-4.25-6.57c-4.63-6-14.51-11-14.51-11,1.65-2,23.45-31.35,33.94-37.69a147.62,147.62,0,0,1,16-8.18c.58-.29,1.17-.52,1.75-.78a92.3,92.3,0,0,1,15.34-5.43s9.58.75,14.28,1.68a34.76,34.76,0,0,1,5.12,1.41,19.79,19.79,0,0,1,2.11.85,16.54,16.54,0,0,1,7.94,6.73c3.41,5.91,5.85,6.77,6.21,15S731.05,923.93,731.07,924Z"/><path class="cls-7" d="M686.83,927.43a1,1,0,0,1-.72.9.78.78,0,0,1-.22,0,.94.94,0,0,1-.91-.69l0-.25-13.56-53.8c.58-.29,1.17-.52,1.75-.78l13.69,54.35A2.09,2.09,0,0,1,686.83,927.43Z"/><path class="cls-5" d="M734.75,851c-6.38,6.58-18.88,8.48-29.79,5.23a27,27,0,0,1-3-1.06l-1.55-.65c-7.9-3.63-13.77-10.55-16.78-14.7-1.47-2-2.27-3.41-2.27-3.41a8.66,8.66,0,0,1-5.63-2.18c-6.23-5.39-6.35-19.07-1.41-21.34,6.1-2.83,7,4.7,7,4.7s2.58-11.7,8.11-18.89a17.83,17.83,0,0,1,1.55-1.81c5.2-5.38,13.35-12.85,16.54-15.72h0c.83-.78,1.32-1.22,1.32-1.22,18.12,4,24.46,1.41,24.46,1.41s.23.69.62,1.83c.17.53.4,1.16.64,1.9,2.25,6.61,6.88,20.53,9.34,28.74C747.2,824.86,742,843.44,734.75,851Z"/><path class="cls-8" d="M672.87,1232.05c-1.17,29.63,0,116.18,0,116.18h-5.65c-.69,0-29.62-96.18-30.8-119.25s12.7-40.91,12.7-40.91l-4.73-17.62c2.24.17,4.71.32,7.4.49,6.08.34,13.36.66,22,.88,1.17,0,2.34.07,3.52.08C676.5,1180,673.86,1207.19,672.87,1232.05Z"/><path class="cls-8" d="M798.73,1341.89l-6.56,1.38-.25,0s-23.53-39.3-36.7-58.1-26.36-42.35-28.48-59.76,3.07-40.7,3.07-40.7l-8.55-13.85c3.92-.21,7.76-.41,11.49-.65,11-.71,21-1.56,28.47-2.36,1.34,8.67,6,39.27,10.22,64.62C776.37,1262.4,798.73,1341.89,798.73,1341.89Z"/><path class="cls-5" d="M670.79,1026.23c-1.68.93-8.73-4.26-13.91-2.6,0,0,9.4,4.93,8.24,7.75-1,2.35-9-1.18-11.09-2.3,1.64,1.39,6.27,7.41,5.21,8.88-1.19,1.67-8.71-5.36-8.71-5.36s3.07,6.3,1.19,8.19-4-8.22-4-8.22a47.69,47.69,0,0,1,4-7.29c2.69-3.63,6.09-9.65,10.1-8S672.47,1025.28,670.79,1026.23Z"/><path class="cls-5" d="M779.2,968.58c-1.12,10.35-5.12,15-11,16.1a23.46,23.46,0,0,1-9.67-.58c-11.06-2.59-15.29-17.15-19-31.05s-12.94-43-14.59-53.85-.93-17.43-.93-17.43a8.6,8.6,0,0,1-4.46-1.89.71.71,0,0,1-.31-.48c-.09-.9,1.9-1.94,3.65-2.69-2.75,1-6.91,2.16-7.82,1.07-1.38-1.59,6.34-7.87,6.79-8.22-.5.18-9.43,4-10.56,2.8s8-6.79,9.08-7.47c-1.16.49-11.37,4.79-12.43,3s10.07-8.76,13.7-10.13,6.82,2.13,6.82,2.13,5.19-.94,4.94,3a7.4,7.4,0,0,1,3.76,7.78,52.71,52.71,0,0,1-3.51,11c.44.71,20.92,32.71,29.62,45.16S780.85,953.28,779.2,968.58Z"/><path class="cls-9" d="M791.91,1343.31l2.59,7.3h31.75S810.49,1334.13,791.91,1343.31Z"/><path class="cls-5" d="M705,856.2l-.39,5.68-.88,13.31c-5.18,2.59-15.07-4-15.07-6.35,0-1.07-1-7.15-2.17-13.47-1.35-7.6-2.84-15.58-2.84-15.58,3,4.15,8.88,11.07,16.78,14.7A33.45,33.45,0,0,0,705,856.2Z"/><path class="cls-10" d="M747,774.75a2.23,2.23,0,0,1,0,.36c-.3,4.63-6.72,7.6-13,8-.39-1.14-.62-1.83-.62-1.83s-6.34,2.58-24.46-1.41c0,0-11.29,10.13-17.87,16.94-3.81,3.91-6.43,10.2-8,14.81-1.13,3.41-1.69,5.89-1.69,5.89s-.81-6.55-5.87-5.13a6.21,6.21,0,0,0-1.17.43c-2.51,1.15-3.69,5.21-3.46,9.67a18.81,18.81,0,0,0,3.12,9.75,12.37,12.37,0,0,0,1.75,1.92,37.92,37.92,0,0,0-2.35,5.59c-4.48,12.82,9.41,23.65,16.69,30.46,5.55,5.19,11,17.66,7.49,27v0a15.13,15.13,0,0,1-6.09,7.54,27.81,27.81,0,0,1-25.17,3.06c7.3-5.65,2.6-18.36-7.76-24.24s-15-10.36-15.28-26.18,18.58-28.62,18.58-28.62L666.9,819a.77.77,0,0,1,.08-.19c0-.08.08-.14.11-.21l2.51-4.83c-1.3-6.08-4.48-21.42,1.19-33.88s22.33-20.92,44.42-18.81S747,769.35,747,774.75Z"/><path class="cls-11" d="M683,811.67c-1.13,3.41-1.69,5.89-1.69,5.89s-.94-7.53-7-4.7c-4.42,2-4.78,13.25-.34,19.42-4.7-2.77-10-7.36-7.06-13.25a.77.77,0,0,1,.08-.19c0-.08.08-.14.11-.21C671.64,810.13,680.68,811,683,811.67Z"/><path class="cls-7" d="M721.74,925.56s0,.06,0,.08a.89.89,0,0,1-.72,1,.55.55,0,0,1-.18,0,.93.93,0,0,1-.92-.73l0-.08-12-55.39a19.79,19.79,0,0,1,2.11.85Z"/><path class="cls-12" d="M621.44,966s10.91,19.12,17,30.4a352.68,352.68,0,0,0-22.3-27.34c6.65-4.91,18.71-25.42,23.36-33.7,4.1,6.19,4.87,10.17,4.87,10.17C636.89,955.65,621.44,966,621.44,966Z"/><path class="cls-12" d="M670.79,1026.23c-1.68.93-8.73-4.26-13.91-2.6,0,0,9.4,4.93,8.24,7.75-1,2.35-9-1.18-11.09-2.3,1.64,1.39,6.27,7.41,5.21,8.88-1.19,1.67-8.71-5.36-8.71-5.36s3.07,6.3,1.19,8.19-4-8.22-4-8.22a47.69,47.69,0,0,1,4-7.29c2.69-3.63,6.09-9.65,10.1-8S672.47,1025.28,670.79,1026.23Z"/><path class="cls-12" d="M768.17,984.68a23.46,23.46,0,0,1-9.67-.58c-11.06-2.59-15.29-17.15-19-31.05s-12.94-43-14.59-53.85-.93-17.43-.93-17.43a8.6,8.6,0,0,1-4.46-1.89.71.71,0,0,1-.31-.48c1.6.44,6.51,1.37,10.26-2.24a64,64,0,0,0,0,24.77c2.65,13.64,12.06,34.46,21.94,49.92A216.86,216.86,0,0,1,768.17,984.68Z"/><path class="cls-12" d="M705,856.2l-.39,5.68a30.52,30.52,0,0,1-18.12-6.51c-1.35-7.6-2.84-15.58-2.84-15.58,3,4.15,8.88,11.07,16.78,14.7A33.45,33.45,0,0,0,705,856.2Z"/><path class="cls-12" d="M701.94,855.14l-1.55-.65c-7.9-3.63-13.77-10.55-16.78-14.7-1.47-2-2.27-3.41-2.27-3.41a8.66,8.66,0,0,1-5.63-2.18c-6.23-5.39-6.35-19.07-1.41-21.34,6.1-2.83,7,4.7,7,4.7s2.58-11.7,8.11-18.89c-3.74,9.37-4.51,18.91-1.75,32.86C689.57,841,696.41,849.55,701.94,855.14Z"/><path class="cls-12" d="M734.59,785.06c-8.28.68-20.64-1.41-27-3.92.83-.78,1.32-1.22,1.32-1.22,18.12,4,24.46,1.41,24.46,1.41s.23.69.62,1.83C734.12,783.69,734.35,784.32,734.59,785.06Z"/><path class="cls-11" d="M609.91,971.84A.94.94,0,0,1,609,971a.92.92,0,0,1,.84-1c6.22-.63,13.5-6.42,13.57-6.49a.94.94,0,0,1,1.18,1.47c-.31.25-7.78,6.21-14.57,6.89Z"/><path class="cls-11" d="M719.18,830.45l-1.55,0a.47.47,0,0,1,0-.94c6.68.25,9.3-1.14,10.06-1.68-2-3.88-6.48-18.71-6.45-19.51a.5.5,0,0,1,.5-.45.45.45,0,0,1,.45.45c.15,1.12,4.55,16.1,6.5,19.38a.47.47,0,0,1-.06.55C728.59,828.31,726.65,830.45,719.18,830.45Z"/><path class="cls-10" d="M690.05,804.58c2.19-2.54,7.87-10.35,19.14-6.71,0,0-1,1.46-9.54,3.48S690.05,804.58,690.05,804.58Z"/><path class="cls-10" d="M721.5,799.12a15.33,15.33,0,0,1,10.93-2.75c6.11,1,6.62,4.37,6.62,4.37S733.87,799.47,721.5,799.12Z"/><path class="cls-13" d="M699.62,835.91c1,.16,6.2,3.83,16.41,3.88s15.72-2.63,15.72-2.63-4.82,11.14-16.06,11.92S699.62,835.91,699.62,835.91Z"/><path class="cls-11" d="M678.13,830.45h0a.48.48,0,0,1-.42-.52c.62-5.23-3.48-12.46-3.52-12.53a.48.48,0,0,1,.18-.64.46.46,0,0,1,.64.17c.18.31,4.29,7.57,3.64,13.1A.48.48,0,0,1,678.13,830.45Z"/><path class="cls-11" d="M676.36,826.41a2.21,2.21,0,0,1-2.24-1.14c-.71-1.67,1.68-3.81,2-4a.45.45,0,0,1,.66,0,.47.47,0,0,1,0,.66c-.57.49-2.08,2.09-1.7,3s2.14.55,2.74.38a.45.45,0,0,1,.57.32.47.47,0,0,1-.32.58A6.37,6.37,0,0,1,676.36,826.41Z"/><path class="cls-14" d="M704.19,810.49c0,2.64-.94,4.79-2.11,4.79s-2.1-2.15-2.1-4.79.94-4.79,2.1-4.79S704.19,807.84,704.19,810.49Z"/><path class="cls-14" d="M731.07,809.54c0,3.17-.94,5.74-2.1,5.74s-2.1-2.57-2.1-5.74.94-5.73,2.1-5.73S731.07,806.37,731.07,809.54Z"/><path class="cls-15" d="M675.18,955.18c-1.1,7.87-2.22,16.34-3,23.88l-.71.87c-4.16-17.69-12-50.86-12-50.86-3.76,5.34-15,16.46-15,16.46s-1.71-4-4.21-8.49c6-4.84,19.44-16.54,21.62-25.92C661.82,911.12,662.84,940.92,675.18,955.18Z"/><path class="cls-16" d="M690.05,870.25c5.55,5.19,11,17.66,7.49,27-.34-7.13-2.68-19.09-13.93-24.45-16.62-7.9-23.84-32.29-14.73-46.9.69-1.12,1.35-2.26,2-3.4a18.81,18.81,0,0,0,3.12,9.75,12.37,12.37,0,0,0,1.75,1.92,37.92,37.92,0,0,0-2.35,5.59C668.88,852.61,682.77,863.44,690.05,870.25Z"/><path class="cls-16" d="M747,775.11c-.3,4.63-6.72,7.6-13,8-.39-1.14-.62-1.83-.62-1.83s-6.34,2.58-24.46-1.41c0,0-11.29,10.13-17.87,16.94-3.81,3.91-6.43,10.2-8,14.81-1.13,3.41-1.69,5.89-1.69,5.89s-.81-6.55-5.87-5.13c4.16-10.34,7.26-20.29,16-27.24C703.71,775.46,721.61,767,747,775.11Z"/><path class="cls-17" d="M760,1274.39c13.14,25.8,25.77,55.23,32.17,68.88l-.25,0s-23.53-39.3-36.7-58.1-26.36-42.35-28.48-59.76,3.07-40.7,3.07-40.7l-8.55-13.85c3.92-.21,7.76-.41,11.49-.65l3.41,15.21C731,1204.29,742.27,1239.58,760,1274.39Z"/><path class="cls-18" d="M796.38,1345.51a.54.54,0,0,1-.27-.21A1.32,1.32,0,0,0,796.38,1345.51Z"/><path class="cls-17" d="M669.16,1348.23h-1.94c-.69,0-29.62-96.18-30.8-119.25s12.7-40.91,12.7-40.91l-4.73-17.62c2.24.17,4.71.32,7.4.49,0,8.73-.07,23.47-.07,23.47s-8.71,10.82-4,48.93C651.87,1277,665.91,1335.06,669.16,1348.23Z"/><path class="cls-3" d="M577.14,1338.82l-7.17.51-1.29.1s-6.6-11.16-19.53-30.92-22-39.92-32.39-67.2,2.5-48.31,2.5-48.31-11.28-23.74-19.75-48.22c-7.51-21.68-21.29-60.37-24.34-68.88-.39-1.08-.6-1.68-.6-1.68s-4,20.69-6.34,35c-.21,1.28-.49,3-.79,5.13-3.25,21.39-11.45,80.5-11.45,80.5,9.87,24.46,5.16,50.81-3.3,72s-34.33,70.33-34.33,70.33l-.6.11-5.76,1.07s7.52-171.49,8-207,.69-110.78.69-110.78l7.08-25.89s0-.13,0-.39-.13-1-.22-2c-.27-2.26-.68-6-1.21-10.84-.07-.64-.13-1.29-.21-2-1.88-17.1-4.87-45.5-6.84-68.4-.69-8.14-1.27-15.57-1.61-21.58a179.57,179.57,0,0,1,0-18.27c.37-8.39,1.23-16.58,2.22-23.8,2.08-15.34,4.76-26.47,4.76-26.47l.09,0c5.4-1.17,11.06-2.48,16.65-3.8-.88,6.73-1.57,17.82-2.1,29.22-.4,8.34-.7,16.84-.93,24-.29,10-.44,17.31-.44,17.31l71.26-1.19a168.58,168.58,0,0,1,1.07-18.11c.89-7.91,2.25-15.57,3.74-22.55,2.55-11.95,5.53-21.89,7.29-27.36,4.6,1,9.42,2.07,14.12,3.12-1.35,5.59-2.93,14.74-4.45,25.17-1.06,7.29-2.09,15.22-3,23-1.39,12.18-2.47,23.92-2.8,32.08-.45,11.11.09,31.76.77,50.05.39,10.46.83,20.15,1.15,26.85,0,.65.06,1.28.09,1.89.21,4.54.36,7.31.36,7.31s.15,1.21.43,3.42c.1.57.17,1.2.25,1.87,3.65,28,20.6,159,23.54,190.43C555,1218.88,577.14,1338.82,577.14,1338.82Z"/><path class="cls-4" d="M467.44,1114.38c-3.25,21.39-11.45,80.5-11.45,80.5,9.87,24.46,5.16,50.81-3.3,72s-34.33,70.33-34.33,70.33l-.6.11c8-19.5,30.73-75.81,34.12-98.2,4.11-27.28,0-47.52,0-47.52Z"/><path class="cls-4" d="M570,1339.33l-1.29.1s-6.6-11.16-19.53-30.92-22-39.92-32.39-67.2,2.5-48.31,2.5-48.31-11.28-23.74-19.75-48.22c-7.51-21.68-21.29-60.37-24.34-68.88l.4-1.93,51.58,117.14c-5.76,37.17,6.23,61.17,12.69,85.16C545,1295.27,562.42,1326.12,570,1339.33Z"/><path class="cls-19" d="M521.24,818.45c-.11.36-.22.71-.35,1.11-3.77,11.88-11.75,40.16-11.75,66.91l-71.26,1.19s1-51.87,3.47-70.49l9.56-2.24c9.09-2.13,18.49-4.3,25-5.33a26.13,26.13,0,0,0,.8,6.31c.94,2.12,3.14,6.28,10.14,5.27s9.38-4.33,9.38-5c0-.17.11-1.37.26-3.09C496.57,813.08,507.85,815.52,521.24,818.45Z"/><path class="cls-19" d="M418.21,862.35a196.81,196.81,0,0,0-.57,27.19c.34,6,.92,13.44,1.61,21.58l-.44-.19h0a35.12,35.12,0,0,1-8.12-1.14C397.28,906.37,388,896.6,388,896.6c-.48-32,6.92-57,9.88-61.41,3.91-5.87,6.58-9.88,25.18-13.87l1.63-.35-.09,0A309.22,309.22,0,0,0,418.21,862.35Z"/><path class="cls-19" d="M578.55,860.37c0,15.53-5.08,42.63-5.08,42.63-6,2.66-23.86,5.25-34.12,6.57-4.47.58-7.49.92-7.49.92-3.1,10.07-5.71,39.7-5.85,41.28v.08l-.1,0c-.58-15.61-1-32.9-.92-44.55,0-2,.09-3.85.15-5.5.87-20.77,6.4-64.54,10.22-80.2C549.47,824.75,578.58,830.74,578.55,860.37Z"/><path class="cls-20" d="M550,869.69c-4.48,13.23-9.24,33.66-10.65,39.88-4.47.58-7.49.92-7.49.92-3.1,10.07-5.71,39.7-5.85,41.28v.08l-.1,0c-.58-15.61-1-32.9-.92-44.55l.15-.32C537.22,880.62,550,869.69,550,869.69Z"/><path class="cls-20" d="M419.25,911.12l-.44-.19h0a35.12,35.12,0,0,1-8.12-1.14c-.21-1.79.72-32.42,7.54-47.44a196.81,196.81,0,0,0-.57,27.19C418,895.55,418.56,903,419.25,911.12Z"/><path class="cls-20" d="M521.24,818.45c-.11.36-.22.71-.35,1.11-9.13,3.4-23.36,7.58-37.85,7.34-17.2-.27-27.55-7.66-32.13-12,9.09-2.13,18.49-4.3,25-5.33a26.13,26.13,0,0,0,.8,6.31c.94,2.12,3.14,6.28,10.14,5.27s9.38-4.33,9.38-5c0-.17.11-1.37.26-3.09C496.57,813.08,507.85,815.52,521.24,818.45Z"/><path class="cls-21" d="M527.15,980.56a239.63,239.63,0,0,1-52.24,5.61,246.47,246.47,0,0,1-48.61-4.7c-.07-.64-.13-1.29-.21-2,13.23,2.78,54.39,9.65,101-.85C527.08,979.32,527.12,980,527.15,980.56Z"/><path class="cls-21" d="M528.19,993.16a287.2,287.2,0,0,1-48.76,4.72v66.21a.93.93,0,0,1-.94.94,1,1,0,0,1-.95-.94V997.92c-1.82,0-3.63.05-5.35.05-23.57,0-37.74-2.23-44.46-3.67-.06-.37-.13-1-.22-2,6.89,1.51,23.16,4.18,51,3.7a288.05,288.05,0,0,0,49.47-4.72C528,991.86,528.11,992.49,528.19,993.16Z"/><path class="cls-5" d="M531.86,760.39c-3.65,9.19-14.48,9.9-14.48,9.9s-.11.43-.33,1.2v0c-1.38,4.51-6.95,20.52-19.2,27.69a24.86,24.86,0,0,1-13.17,3.52,27,27,0,0,1-9.13-1.62c-17.29-6.21-23.09-28.24-23.09-28.24h-.53c-8.18-.27-11.37-9.51-11.37-17.39a25.27,25.27,0,0,1,.63-5.71h0a14.21,14.21,0,0,1,1-2.88c.83-1.64,1.91-2.62,3.21-2.48,4.84.5,5.89,8.11,6.1,12.49,0,1,0,2,0,3.05,0,0,.13-.5.39-1.36,1.2-4.23,5.09-17.5,8.31-25,3.89-9,4.94-11.29,8.95-9.65s28.92,4.94,33.16,2.58a20,20,0,0,1,8.88,8.89c.67,1.44,1.26,2.93,1.81,4.43A102.67,102.67,0,0,1,516.29,751l.06.23c.11.53.23,1,.35,1.52a.63.63,0,0,1,0,.19c.77,3.5,1.13,5.85,1.13,5.85s3.76-11,8.22-12.23a4.33,4.33,0,0,1,1.86-.07C531.76,747.05,535,752.48,531.86,760.39Z"/><path class="cls-22" d="M527.94,746.45a4.33,4.33,0,0,0-1.86.07c-4.46,1.19-8.22,12.23-8.22,12.23a116.93,116.93,0,0,0-3.3-14.22c-.44-1.55-1-3.13-1.54-4.69a23.66,23.66,0,0,0-1.81-4.43,20,20,0,0,0-8.88-8.89c-4.24,2.36-29.17-.94-33.16-2.58s-5.06.62-8.95,9.65c-1.61,3.73-3.35,8.86-4.88,13.62-2.16,6.75-3.82,12.73-3.82,12.73s.05-1.28,0-3.05c-.21-4.38-1.26-12-6.1-12.49-1.3-.14-2.38.84-3.21,2.48a10,10,0,0,0-1,2.88c-1.58-3.09.33-10.31,3.74-18,1.06-2.43,2.26-4.89,3.54-7.31,5.4-10.11,12-14.82,17.39-13.17a22.62,22.62,0,0,1,18.44-15.05c14.89-2.35,27.67,4.47,36.13,16.93,3.54,5.22,5.44,11.88,6.45,17.88A83.15,83.15,0,0,1,527.94,746.45Z"/><path class="cls-11" d="M451.49,756.88c0,1,0,2,0,3C451.52,759.93,451.57,758.67,451.49,756.88Z"/><path class="cls-23" d="M418.35,1337.2s-13.75.78-29.48,13.49c0,0,22.66.62,33-.08A72.15,72.15,0,0,0,418.35,1337.2Z"/><path class="cls-23" d="M567.89,1338.94s4.94-4.7,16-1.65S599.17,1351,599.17,1351h-28.7Z"/><path class="cls-5" d="M416.5,982.88a49.89,49.89,0,0,0,.92,6.87c-10.6-2.1-32.93-17.4-32.93-17.4A46.47,46.47,0,0,1,382,962.2,98.62,98.62,0,0,1,381,946c.22-17.41,1.66-39.52,7.06-49.4,0,0,9.27,9.77,22.66,13.19a35.12,35.12,0,0,0,8.12,1.14h0c1.79,6.3-.68,32-.92,34.41,0,.13,0,.19,0,.19,4,1.81,8.33,7.15,9.53,8.72C425.42,956.42,415.41,965.17,416.5,982.88Z"/><path class="cls-24" d="M439.25,846.39c-.4,8.34-.7,16.84-.93,24l-20.69.92c.37-8.39,1.23-16.58,2.22-23.8A46.81,46.81,0,0,1,439.25,846.39Z"/><path class="cls-24" d="M530.91,846.74c-1.06,7.29-2.09,15.22-3,23-4.89-.27-12.32-.73-17.73-1.33.89-7.91,2.25-15.57,3.74-22.55A158.86,158.86,0,0,1,530.91,846.74Z"/><path class="cls-21" d="M440.57,976.6a1,1,0,0,1-.91-.75c-2.77-12.77-5.89-66.86-6-69.16a1,1,0,0,1,.27-.7,1,1,0,0,1,.7-.29c4.63.13,9.38.2,14.13.2A490.08,490.08,0,0,0,511,902.07a.88.88,0,0,1,.74.21,1,1,0,0,1,.33.69l2.2,67.89a1,1,0,0,1-.88,1l-72.73,4.77Zm-5-69c.45,7.52,3.26,54.12,5.76,67l71-4.64-2.13-65.93a502.46,502.46,0,0,1-61.47,3.7C444.33,907.78,439.91,907.73,435.58,907.61Z"/><path class="cls-21" d="M531.86,911.43l-.24,0a1,1,0,0,1-.68-1.14c.4-1.51.94-3.84,1.61-6.69,3-12.79,8.49-36.58,14.48-45.44a.94.94,0,1,1,1.56,1c-5.8,8.58-11.27,32.15-14.21,44.81-.67,2.88-1.22,5.21-1.61,6.73A1,1,0,0,1,531.86,911.43Z"/><path class="cls-5" d="M497.85,799.21c-.21,2.13-.53,5.39-.84,8.47-.19,2-.38,3.88-.53,5.38-.15,1.72-.26,2.92-.26,3.09,0,.7-2.36,4-9.38,5s-9.2-3.15-10.14-5.27a26.13,26.13,0,0,1-.8-6.31c-.07-.79-.1-1.6-.14-2.39-.12-2.36-.19-4.66-.21-6.1a27,27,0,0,0,9.13,1.62A24.86,24.86,0,0,0,497.85,799.21Z"/><path class="cls-12" d="M497.85,799.21c-.21,2.13-.53,5.39-.84,8.47-10.54,3.32-17.73,1.19-21.25-.47-.12-2.36-.19-4.66-.21-6.1a27,27,0,0,0,9.13,1.62A24.86,24.86,0,0,0,497.85,799.21Z"/><path class="cls-12" d="M451.93,772.87c-8.18-.27-11.37-9.51-11.37-17.39a25.27,25.27,0,0,1,.63-5.71h0a14.21,14.21,0,0,1,1-2.88c.83-1.64,1.91-2.62,3.21-2.48,4.84.5,5.89,8.11,6.1,12.49,0,1,0,2,0,3.05,0,0,.13-.5.39-1.36A65.57,65.57,0,0,0,451.93,772.87Z"/><path class="cls-12" d="M531.86,760.39c-3.65,9.19-14.48,9.9-14.48,9.9s-.11.43-.33,1.2a55.43,55.43,0,0,0-.32-18.59c.77,3.5,1.13,5.85,1.13,5.85s3.76-11,8.22-12.23a4.33,4.33,0,0,1,1.86-.07C531.76,747.05,535,752.48,531.86,760.39Z"/><path class="cls-12" d="M417.89,945.34a13.06,13.06,0,0,0-5.89,1.45c1.09-5.79-.53-27.34-1.33-37a35.12,35.12,0,0,0,8.12,1.14h0C420.6,917.23,418.13,943,417.89,945.34Z"/><path class="cls-12" d="M417.42,989.75c-10.6-2.1-32.93-17.4-32.93-17.4A46.47,46.47,0,0,1,382,962.2c5.29,4.71,19.71,16.54,34.5,20.68A49.89,49.89,0,0,0,417.42,989.75Z"/><path class="cls-5" d="M573.47,903a283.72,283.72,0,0,1-9.27,40.18c-6.82,21.89-13.41,39.28-13.41,39.28s0,6.58-8.47,28.46a151.08,151.08,0,0,1-13.85,27.88c-.3-2.41-1.49-8.06-6.24-17.92-3.39-7-7.14-10.92-10.19-13.08a17,17,0,0,0-4.19-2.24c4.76-13.21,16.6-30.4,16.6-30.4s.39-8.6,1.56-23.39c.14-1.58,2.75-31.21,5.85-41.28,0,0,3-.34,7.54-.92C549.68,908.25,567.46,905.66,573.47,903Z"/><path class="cls-12" d="M539.4,909.57c-4.61,17.73-10.93,55.11-11.21,70.16L512,1007.8a17,17,0,0,0-4.19-2.24c4.76-13.21,16.6-30.4,16.6-30.4s.39-8.6,1.56-23.39c.14-1.58,2.75-31.21,5.85-41.28C531.86,910.49,534.9,910.15,539.4,909.57Z"/><path class="cls-14" d="M473.66,756.8c0,2.72-.78,4.94-1.74,4.94s-1.74-2.22-1.74-4.94.78-4.95,1.74-4.95S473.66,754.07,473.66,756.8Z"/><path class="cls-14" d="M504.21,756.8c0,2.72-.78,4.94-1.73,4.94s-1.74-2.22-1.74-4.94.77-4.95,1.74-4.95S504.21,754.07,504.21,756.8Z"/><path class="cls-11" d="M492.11,776.2a31.42,31.42,0,0,1-5.49-.52.46.46,0,0,1-.38-.54.49.49,0,0,1,.54-.39c6.76,1.21,10.19,0,11.31-.6-5.3-6.81-6.52-20.87-6.58-21.48a.46.46,0,0,1,.43-.5.48.48,0,0,1,.51.43c0,.15,1.31,15,6.71,21.37a.52.52,0,0,1,.11.36.46.46,0,0,1-.18.32C499,774.73,497,776.2,492.11,776.2Z"/><path class="cls-11" d="M520.56,764.66h-.07a.48.48,0,0,1-.39-.55c1-5.78,6-12.27,6.17-12.54a.45.45,0,0,1,.65-.08.47.47,0,0,1,.08.67c0,.05-5,6.56-6,12.11A.48.48,0,0,1,520.56,764.66Z"/><path class="cls-11" d="M448.07,765.34h0a.47.47,0,0,1-.44-.51c.47-6.62-2.91-14.8-2.94-14.88a.46.46,0,0,1,.25-.61.45.45,0,0,1,.61.25c.15.34,3.51,8.46,3,15.32A.47.47,0,0,1,448.07,765.34Z"/><path class="cls-11" d="M446.31,761.43a1.91,1.91,0,0,1-1.11-.29,1.37,1.37,0,0,1-.58-1.21c0-2,2.3-3.48,2.41-3.54a.46.46,0,0,1,.64.16.47.47,0,0,1-.15.64s-2,1.22-2,2.74c0,.33.13.41.17.44a2.92,2.92,0,0,0,2-.18.47.47,0,1,1,.34.88A5.4,5.4,0,0,1,446.31,761.43Z"/><path class="cls-11" d="M523.6,761.92a6.32,6.32,0,0,1-2.33-.53.47.47,0,0,1,.38-.86c.57.25,2.33.79,2.92.12.43-.48-.73-2.15-1.7-3.12a.47.47,0,0,1,0-.66.46.46,0,0,1,.67,0c.5.49,2.92,3.06,1.74,4.41A2.17,2.17,0,0,1,523.6,761.92Z"/><path class="cls-25" d="M462,747.71a4.18,4.18,0,0,1,.63-.45,15.11,15.11,0,0,1,1.8-1.06c.75-.41,1.69-.77,2.67-1.18.51-.16,1.05-.32,1.6-.47a12.94,12.94,0,0,1,1.66-.39l1.71-.24a7.24,7.24,0,0,1,1.67-.09,17.69,17.69,0,0,1,2.95.2c1.71.37,2.79.71,2.79.71a.69.69,0,0,1-.19,1.36h-.13s-1.09,0-2.64-.07a26.35,26.35,0,0,0-2.67.13,8.73,8.73,0,0,0-1.49.17l-1.54.25a13.41,13.41,0,0,0-1.53.32l-1.47.35c-.94.31-1.87.48-2.61.79s-1.39.45-1.81.62l-.7.26a.71.71,0,0,1-.73-1.19Z"/><path class="cls-25" d="M493.43,746.23l.63-.52c.19-.15.4-.34.66-.56a10,10,0,0,1,1-.69,16.43,16.43,0,0,1,2.82-1.43c.54-.18,1.13-.35,1.72-.51a6.9,6.9,0,0,1,1.82-.34l1.84-.17a10.58,10.58,0,0,1,1.79.09l1.65.19a5.73,5.73,0,0,1,1.44.36c1.75.59,2.84,1.06,2.84,1.06a.71.71,0,0,1,.37.92.73.73,0,0,1-.68.43h-.11s-1.17,0-2.81-.21a6.23,6.23,0,0,0-1.32-.09l-1.47,0a8.09,8.09,0,0,0-1.55.05l-1.58.2c-1.07.07-2.08.48-3.08.62-1,.35-1.89.55-2.65.87l-1.09.39-.92.37a7.12,7.12,0,0,1-.77.24.72.72,0,0,1-.6-1.26Z"/><path class="cls-26" d="M503.59,779.14a36.23,36.23,0,0,1-2,5.58c-2.35,5.2-6.89,12.16-14.43,12.46-6.86.27-11.22-4.74-13.72-9.15a30.21,30.21,0,0,1-2.75-6.38C471.13,781.49,493.24,782.75,503.59,779.14Z"/><path class="cls-13" d="M503.59,779.14a36.23,36.23,0,0,1-2,5.58A58.46,58.46,0,0,1,473.41,788a30.21,30.21,0,0,1-2.75-6.38C471.13,781.49,493.24,782.75,503.59,779.14Z"/><path class="cls-11" d="M464.21,1008.57c-2.67,0-6.6-.8-11.54-4.07a.48.48,0,0,1-.13-.66.47.47,0,0,1,.65-.13c9,6,14.53,3.29,14.58,3.26a.48.48,0,0,1,.63.21.47.47,0,0,1-.2.63A9.08,9.08,0,0,1,464.21,1008.57Z"/><path class="cls-27" d="M484.45,1038a25.25,25.25,0,0,1,3.68.29A5.52,5.52,0,0,1,484.45,1038Z"/><path class="cls-28" d="M455.34,747.21c-2.16,6.75-3.82,12.73-3.82,12.73s.05-1.28,0-3.05c-.21-4.38-1.26-12-6.1-12.49-1.3-.14-2.38.84-3.21,2.48a10,10,0,0,0-1,2.88c-1.58-3.09.33-10.31,3.74-18A41.68,41.68,0,0,0,455.34,747.21Z"/><path class="cls-28" d="M527.94,746.45a4.33,4.33,0,0,0-1.86.07c-4.46,1.19-8.22,12.23-8.22,12.23a116.93,116.93,0,0,0-3.3-14.22A71.78,71.78,0,0,0,526.88,731,83.15,83.15,0,0,1,527.94,746.45Z"/><path class="cls-29" d="M494.13,1358l.08,0a6.23,6.23,0,0,0-.39-1A9.08,9.08,0,0,1,494.13,1358Z"/><path class="cls-30" d="M494.13,1358a9.08,9.08,0,0,0-.31-1h0c-1.22-3.4-3.9-6.77-5.92-6.09-3.51,1.17,1.57,14.1,5.33,12a3.35,3.35,0,0,0,1-1.23A6.33,6.33,0,0,0,494.13,1358Z"/><path class="cls-31" d="M548.84,1355.71a3.48,3.48,0,0,0-.4-.88S548.59,1355.2,548.84,1355.71Z"/><path class="cls-31" d="M564.78,1354.64a3,3,0,0,0-.59-1.44A15.52,15.52,0,0,0,564.78,1354.64Z"/><path class="cls-31" d="M567.89,1348.23l-.48-.1C567.57,1348.16,567.76,1348.19,567.89,1348.23Z"/><path class="cls-32" d="M567.88,1341.34v6.89l-.47-.11a5,5,0,0,0-.65-.1c-6.86-.93-32.35,3-51.54,6.24-9.65,1.63-17.71,3.12-21,3.72-.21-.56-.39-.93-.39-.93-1.23-3.41-3.92-6.78-5.93-6.1,5.4-1.87,10.78-3.41,16-4.68A203.24,203.24,0,0,1,567.88,1341.34Z"/><path class="cls-31" d="M494.25,1361.77a3.35,3.35,0,0,1-1,1.23A2.26,2.26,0,0,0,494.25,1361.77Z"/><path class="cls-33" d="M515.22,1354.26c-9.65,1.63-17.71,3.12-21,3.72-.21-.56-.39-.93-.39-.93-1.23-3.41-3.92-6.78-5.93-6.1,5.4-1.87,10.78-3.41,16-4.68C507.52,1349,511.66,1351.85,515.22,1354.26Z"/><path class="cls-34" d="M528.39,1346.11a4.38,4.38,0,0,1-.5,0,2.85,2.85,0,0,1-2.78-2.32L493,1166.24,454.38,952.36a2.83,2.83,0,0,1,5.57-1l40.53,224.36,30.2,167.12A2.84,2.84,0,0,1,528.39,1346.11Z"/><path class="cls-35" d="M528.39,1346.11a4.38,4.38,0,0,1-.5,0,2.85,2.85,0,0,1-2.78-2.32L493,1166.24c2.34,3,4.86,6.14,7.45,9.46l30.2,167.12A2.84,2.84,0,0,1,528.39,1346.11Z"/><path class="cls-36" d="M569.14,1357.05c-2,1.47-3.58-.78-4.35-2.42a3.13,3.13,0,0,0-.56-1.4,9.7,9.7,0,0,0,.56,1.4,3.53,3.53,0,0,1-.59,2.42c-1.42,2.17-9.65-2.23-9.65-2.23a4.39,4.39,0,0,1-2.12,3.47c-1.53,1-2.92-1.26-3.6-2.58a3.46,3.46,0,0,0-.39-.89s.15.38.39.89c.34,1.09.28,3-3.22,4.06a8.15,8.15,0,0,1-8.24-1.48s-.69,2.19-4.21,3.14-7.53-3.14-7.53-3.14a6.07,6.07,0,0,1-1.59,3.89,4.26,4.26,0,0,1-1.48,1c-2.87,1.24-7-2-7.49-2.37.12.26.6,1.88-5.21,3.27A15.62,15.62,0,0,1,499,1363a4.31,4.31,0,0,1-5.8,0,2.3,2.3,0,0,0,1-1.23,5.34,5.34,0,0,0,0-3.79c3.54-.65,12.57-2.29,23.19-4.08,18.89-3.19,42.75-6.77,49.35-5.88.27,0,.5.07.65.1l.47.11S572.19,1354.84,569.14,1357.05Z"/><path class="cls-37" d="M524,1362.18a4.26,4.26,0,0,1-1.48,1c-2.87,1.24-7-2-7.49-2.37.12.26.6,1.88-5.21,3.27A15.62,15.62,0,0,1,499,1363a4.31,4.31,0,0,1-5.8,0,2.3,2.3,0,0,0,1-1.23,5.34,5.34,0,0,0,0-3.79c3.54-.65,12.57-2.29,23.19-4.08A49.23,49.23,0,0,0,524,1362.18Z"/><path class="cls-37" d="M472.71,989.08a3.61,3.61,0,0,1-.92.67c.11.16.2.32.29.48,2.42,4-.14,7.95-.86,8.94a2.7,2.7,0,0,0-.17.22,7.38,7.38,0,0,1,.29.73,7.46,7.46,0,0,1,.45,2.59c-.08,3.43-3.26,4.5-3.8,4.7-.7.22-.48,5.4-8.94,4.7s-18.35-11.78-18.35-11.78c-9.17-4.93-23.28-10.58-23.28-10.58a46.59,46.59,0,0,1-.88-6.38c-1.32-18,8.86-26.92,10.87-29.12.23-.24.36-.41.36-.48L448,969.28c14.83-11.74,20.25-8.47,24.24-2.11,3.22,5.14,1.24,12.25.38,14.81-.18.43-.29.73-.35.88l0,.1C474.57,986.27,473.61,988.18,472.71,989.08Z"/><path class="cls-11" d="M471.34,1000.12a18.24,18.24,0,0,1-6,1A20.13,20.13,0,0,1,452,995.88a.47.47,0,0,1-.05-.67.48.48,0,0,1,.66-.06c8.09,6.92,15.88,5,18.57,4a2.7,2.7,0,0,0-.17.22A7.38,7.38,0,0,1,471.34,1000.12Z"/><path class="cls-11" d="M471.79,989.75c.11.16.2.32.29.48a9.6,9.6,0,0,1-1.73.14c-2.82,0-7.16-1.13-13-5.91a.46.46,0,0,1-.05-.66.45.45,0,0,1,.66,0c7.84,6.38,12.82,6,14.77,5.33A3.61,3.61,0,0,1,471.79,989.75Z"/><path class="cls-11" d="M472.6,982c-.18.43-.29.73-.35.88-2.42-.47-6.8-4.72-9.6-10.42a.47.47,0,0,1,.2-.64.45.45,0,0,1,.63.23C466.46,978.08,471,981.9,472.6,982Z"/><path class="cls-38" d="M471.79,1002.71c-.08,3.43-3.26,4.5-3.8,4.7-.7.22-.48,5.4-8.94,4.7s-18.35-11.78-18.35-11.78c-9.17-4.93-23.28-10.58-23.28-10.58a46.59,46.59,0,0,1-.88-6.38C423.83,988,453.59,1007.5,471.79,1002.71Z"/><path class="cls-37" d="M528.59,1040.17s-1.61,2.22-4.77,6.25l-1.47,1.88c-2.22,2.78-5,6.21-8.35,10.21-9.65,11.54-19.07,23.06-28.23,25.65-7.16,2-12.4.59-12.76-2.34a3.23,3.23,0,0,1,.55-2.24,2.65,2.65,0,0,1,.35-.57,5,5,0,0,1-.76-.36h0c-1.61-.8-5-3.11-3.58-7.65l-.11-.1c-.11-.11-.35-.34-.64-.68-1.43-1.6-4.26-5.4-2.8-9.06,0,0,0,0,0,0a2.1,2.1,0,0,1,.23-.48s-.2-.19-.49-.53c-1.26-1.47-4.46-5.94-1.39-10.55,3.38-5.07,9.62-11.61,20.09-11.53a25.25,25.25,0,0,1,3.68.29s9.4-16.51,12.92-22.86l.26-.46c.31-.57.61-1.1.89-1.62,2.74-5.15,4-8.26,4-8.26a8.54,8.54,0,0,1,1.62.43,17.57,17.57,0,0,1,4.64,2.58c3,2.22,6.51,6.07,9.74,12.74,4.55,9.43,5.82,15,6.18,17.58a2.21,2.21,0,0,1,.06.34A11.79,11.79,0,0,1,528.59,1040.17Z"/><path class="cls-11" d="M477.73,1054.34a.46.46,0,0,1-.35.56c-4.41,1-9.08,4.18-11.37,6.23a2.1,2.1,0,0,1,.23-.48s-.2-.19-.49-.53c2.5-2.15,7.07-5.14,11.42-6.14A.46.46,0,0,1,477.73,1054.34Z"/><path class="cls-11" d="M482.32,1063.56a.46.46,0,0,1-.39.53c-6,.75-10.54,4.68-12.5,6.81-.11-.11-.35-.34-.64-.68,2.11-2.28,6.76-6.29,13-7.08A.48.48,0,0,1,482.32,1063.56Z"/><path class="cls-11" d="M483.34,1074.8c-4.12,3.59-7.58,4.51-9.78,4.78a2.65,2.65,0,0,1,.35-.57,5,5,0,0,1-.76-.36c2.07-.19,5.45-1,9.59-4.57a.47.47,0,1,1,.6.72Z"/><path class="cls-38" d="M512.49,1008.14c-5.46,7-20.66,29.06-24.36,30.19,0,0,9.4-16.51,12.92-22.86l.26-.46c.31-.57.61-1.1.89-1.62,2.74-5.15,4-8.26,4-8.26a8.54,8.54,0,0,1,1.62.43A17.57,17.57,0,0,1,512.49,1008.14Z"/><path class="cls-38" d="M528.59,1040.17s-1.61,2.22-4.77,6.25l-1.47,1.88c-2.22,2.78-5,6.21-8.35,10.21-9.65,11.54-19.07,23.06-28.23,25.65-7.16,2-12.4.59-12.76-2.34,3.6-1.21,8.35-2.83,14.59-5,15.9-5.46,34.22-29.19,40.81-38.39a2.21,2.21,0,0,1,.06.34A11.79,11.79,0,0,1,528.59,1040.17Z"/><path class="cls-9" d="M663.71,1337.54c-2.2,7-3.3,12.38-3.3,12.38s12.7,0,18.81-1.18l-6.34-12Z"/><path class="cls-39" d="M237,1138.35l-6.25,215.37-9.27-.07c-6.78-.05-15.05-.06-16.39.07-2,.17,23.39-161.46,30.23-204.8C236.41,1142.23,237,1138.35,237,1138.35Z"/><polygon class="cls-39" points="309.84 1353.72 280.09 1353.72 274.57 1341.24 275.66 1319.06 301.53 1319.06 309.84 1353.72"/><path class="cls-40" d="M235.34,1148.92c1.07-6.69,1.68-10.57,1.68-10.57l-6.25,215.37-9.27-.07Z"/><polygon class="cls-40" points="291.29 1353.72 280.09 1353.72 274.57 1341.24 275.66 1319.06 286.89 1319.06 291.29 1353.72"/><polygon class="cls-41" points="368.29 1353.28 322.25 1353.28 322.25 1319.06 275.66 1319.06 273.96 1353.72 230.78 1353.72 237.02 1138.35 335.33 1138.35 368.29 1353.28"/><path class="cls-39" d="M321.22,1161.42a2.62,2.62,0,0,1-2.63,2.62H260.84a2.62,2.62,0,0,1-2.63-2.62v-7a2.63,2.63,0,0,1,2.63-2.63h57.75a2.63,2.63,0,0,1,2.63,2.63Z"/><polygon class="cls-19" points="368.29 1353.28 329.79 1353.28 332.64 1138.35 335.33 1138.35 368.29 1353.28"/><polygon class="cls-42" points="244.21 1266.86 343.09 1266.86 289.71 1193.37 244.21 1266.86"/><path class="cls-43" d="M332.78,1261.84H253.9a.66.66,0,0,1-.55-1l36.28-58.61a.68.68,0,0,1,.54-.31.72.72,0,0,1,.55.27l42.48,58.51a.59.59,0,0,1,.24.49A.65.65,0,0,1,332.78,1261.84Zm-77.7-1.31h76.39l-41.24-56.78Z"/><path class="cls-36" d="M362.12,1346.85a.78.78,0,0,1-.14.53.75.75,0,0,1-.5.21H326.9a.65.65,0,0,1-.66-.65v-32.6H268.49v33.05a.66.66,0,0,1-.66.65H237a.67.67,0,0,1-.47-.2.6.6,0,0,1-.19-.47l7-209h1.32l-7,208.38h29.47v-33a.66.66,0,0,1,.66-.65H326.9a.64.64,0,0,1,.66.65v32.6h33.16l-31-207.94H331Z"/><path class="cls-36" d="M252.3,1157.93c0,2.65-1.1,4.81-2.45,4.81s-2.47-2.16-2.47-4.81,1.1-4.82,2.47-4.82S252.3,1155.26,252.3,1157.93Z"/><path class="cls-36" d="M329.59,1157.93c0,2.65-1.11,4.81-2.46,4.81s-2.47-2.16-2.47-4.81,1.11-4.82,2.47-4.82S329.59,1155.26,329.59,1157.93Z"/><polygon class="cls-44" points="289.71 1248.49 282.93 1222.24 301.09 1222.24 293.65 1248.49 289.71 1248.49"/><path class="cls-44" d="M288.72,1254.62a3.29,3.29,0,1,1,3.29,3.28A3.29,3.29,0,0,1,288.72,1254.62Z"/><path class="cls-37" d="M961.63,1261.92,959.77,1273l-12.59,75.34a190.35,190.35,0,0,1-31.91,4.46c-31,1.7-52.78-4.46-52.78-4.46l-10-82.84-.43-3.59Z"/><path class="cls-38" d="M961.63,1261.92,959.77,1273a188.89,188.89,0,0,1-29.09,3c-34.77,1-65.64-6.82-78.16-10.49l-.43-3.59Z"/><path class="cls-38" d="M961.63,1261.92,959.77,1273l-12.59,75.34a190.35,190.35,0,0,1-31.91,4.46c3.48-13.21,11.61-48.67,15.41-76.81.67-5,1.21-9.73,1.57-14.08Z"/><path class="cls-45" d="M902.24,1256.71H891.6s-1.92-9.87-3.84-19.67L884,1218s2.83,2.39,9.1,1.72l6.49,26.36Z"/><path class="cls-46" d="M902.24,1256.71H891.6s-1.92-9.87-3.84-19.67c3.29,2.93,8.16,7,11.86,9Z"/><path class="cls-30" d="M911.14,1199.78l-5.74,1.31-6.63,1.51-3.47-11.28a15.8,15.8,0,0,0,10.1-2.13,10.84,10.84,0,0,0,2.47-1.92Z"/><path class="cls-45" d="M911.14,1199.78l-5.74,1.31v-11.9a10.84,10.84,0,0,0,2.47-1.92Z"/><polygon class="cls-24" points="876.65 1256.71 852.67 1256.71 856.06 1230.57 868.65 1230.57 876.65 1256.71"/><polygon class="cls-47" points="876.65 1256.71 865.8 1256.71 864.38 1230.57 868.65 1230.57 876.65 1256.71"/><path class="cls-30" d="M849.9,1221.46c-1.7,8.47-8.55,11.31-9.45,10.48-1.08-1-.65-2.46,1.73-6.35,1.58-2.59,2-6.41,2.14-8.7,0-1.18,0-2,0-2l5.86.69A20.68,20.68,0,0,1,849.9,1221.46Z"/><path class="cls-45" d="M849.9,1221.46c-1.61-1.42-4.19-3.46-5.58-4.57,0-1.18,0-2,0-2l5.86.69A20.68,20.68,0,0,1,849.9,1221.46Z"/><path class="cls-32" d="M893.13,1219.72l15.17-12.57h20.81l-18-7.37-12.36,2.83L884,1218S886.27,1221,893.13,1219.72Z"/><path class="cls-32" d="M895.3,1191.33s2.6-4.45,12.57-4.06C907.87,1187.27,904.84,1192.7,895.3,1191.33Z"/><polygon class="cls-48" points="849.2 1202.61 843.7 1202.61 842.19 1214.74 847.83 1215.53 849.2 1202.61"/><polygon class="cls-49" points="884.03 1213.66 874.35 1219.98 847.84 1215.53 847.95 1214.02 848.77 1202.6 875.5 1202.6 881.46 1210.34 884.03 1213.66"/><path class="cls-48" d="M884,1213.66l-9.68,6.32-26.51-4.45L848,1214c5.16.11,23.58.9,23.58.9l9.93-4.58Z"/><polygon class="cls-50" points="869.72 1219.14 869.72 1223.49 853.05 1223.49 853.05 1216.13 869.72 1219.14"/><polygon class="cls-51" points="869.72 1219.14 869.72 1222.29 853.05 1217.53 853.05 1216.13 869.72 1219.14"/><polygon class="cls-37" points="868.65 1230.57 856.06 1230.57 856.06 1223.49 866.68 1223.49 868.65 1230.57"/><polygon class="cls-38" points="868.65 1230.57 864.19 1230.57 859.97 1223.49 866.68 1223.49 868.65 1230.57"/><polygon class="cls-24" points="846.61 1206.14 846.01 1211.85 843.69 1211.6 840.96 1211.28 841.54 1205.49 846.23 1206.1 846.61 1206.14"/><polygon class="cls-47" points="846.61 1206.14 846.01 1211.85 843.69 1211.6 846.23 1206.1 846.61 1206.14"/><polygon class="cls-30" points="944.08 1256.71 902.24 1256.71 899.48 1245.55 893.13 1219.72 908.3 1207.15 929.11 1207.15 939.58 1241.81 944.08 1256.71"/><path class="cls-52" d="M944.08,1256.71H902.24l-2.76-11.16a141.37,141.37,0,0,0,19.13,1.92c5.2,0,14.82-3.31,21-5.66Z"/><path class="cls-36" d="M964.23,1260.18a3.47,3.47,0,0,1-3.47,3.47H852.67a3.45,3.45,0,0,1-3.46-3.47,3.5,3.5,0,0,1,1-2.44,3.58,3.58,0,0,1,2.46-1H960.76A3.48,3.48,0,0,1,964.23,1260.18Z"/><path class="cls-37" d="M964.23,1260.18a3.47,3.47,0,0,1-3.47,3.47h-39l3.5-6.94h35.48A3.48,3.48,0,0,1,964.23,1260.18Z"/><path class="cls-53" d="M906.7,1256.71c-.14,1.62-.35,4-.62,6.94-1,10.81-2.79,28.91-5.07,42.2-1.7,9.78-3.67,16.94-5.71,16.67-6.3-.85-3.9-18.68-4.34-19.34s-5.42,20.17-10.84,19.3c-5.19-.83-.43-20,0-21.58-.7,1.51-8.62,18.89-13,17-4.54-1.94,3.26-24,3.4-24.68s-11,15.81-14.46,14.14.63-7.1,3.91-18.07c2-6.67,7-17.75,10.82-25.65,1.36-2.83,2.55-5.26,3.39-6.94Z"/><path class="cls-24" d="M977,1296.21c-1.22-2.13-8.08-2.2-14.29-3.26-.61-.09-1.22-.21-1.83-.34-.94-.21-1.86-.43-2.71-.71l-.1,0c-4.42-1.44-9.84-4.13-14.2-5.22a16.8,16.8,0,0,0-1.78-.38,10.83,10.83,0,0,0-1.66-.14,4.14,4.14,0,0,0-3.67,1.61l-3.37-10.35-.55-1.77-2.85-8.77-.57-1.73-2.72-8.42a18.09,18.09,0,0,1,7.18-.79,6.32,6.32,0,0,1,2.58.95,2.78,2.78,0,0,1,.65.49c.33.28,1.45-3.89,5.35-6.77a12.48,12.48,0,0,1,1.46-.92,14,14,0,0,1,6.86-1.7l1.27,0c.39,0,.75.06,1.11.11,4.93.58,8.64,3.21,11.62,6.89a16.58,16.58,0,0,1,1,1.38c3,4.13,5.17,9.29,7.13,14.46.21.51.38,1,.57,1.49a1.56,1.56,0,0,1,.05.16,59.72,59.72,0,0,1,3.2,17v0c.12,2,.15,3.83.19,5.14C977,1295.31,977,1295.82,977,1296.21Z"/><path class="cls-54" d="M977.23,1297.23a1.4,1.4,0,0,0-.19-1,3.71,3.71,0,0,0,.13.93C977.26,1297.19,977.28,1297.22,977.23,1297.23Z"/><path class="cls-54" d="M977.17,1297.15s0,.09.06.08S977.26,1297.19,977.17,1297.15Z"/><path class="cls-47" d="M977.17,1297.15a3.71,3.71,0,0,1-.13-.93c-1.53-2.7-11.95-2.13-18.83-4.32h-.06l0,0c-7.63-2.47-18.18-8.64-21.31-4.14-1.45,2.09,8.16,4.56,15.2,6.91s24.59,6.5,25.23,2.59C977.21,1297.24,977.19,1297.19,977.17,1297.15Z"/><path class="cls-55" d="M972,1353.26l-24.93,6.07s1.31,6.72,1.09,6.86l25.15-5Z"/><polygon class="cls-56" points="921.78 1358.31 921.97 1364.46 948.19 1366.19 947.11 1359.33 921.78 1358.31"/><path class="cls-57" d="M947.1,1348.82c-.79-.42-25.32,9.49-25.32,9.49l25.32,1,24.93-6.07S947.91,1349.24,947.1,1348.82Z"/><path class="cls-3" d="M915.27,1310.77c-7.76,1.19-4.76-24-4.22-28.23-.64,3.75-4.15,23.87-9.46,23.46a1.6,1.6,0,0,1-.58-.15c-4.54-2.12.58-25,1.15-27.58-.74,2.39-6.72,21.36-11.2,20.36-4.77-1.08,0-25.36,0-25.36s-9.31,20.6-14.31,18.86c-3.37-1.18.6-17.69,3.92-28.48.87-2.83,1.71-5.26,2.33-6.94h38.94c0,1.64.09,4,.11,6.94C922.08,1279.4,921.5,1309.8,915.27,1310.77Z"/><path class="cls-58" d="M943.91,1286.65a16.8,16.8,0,0,0-1.78-.38c-.49-3.22-.93-6.18-1.37-9h0c-.08-.6-.17-1.16-.27-1.72-.6-3.39-1.23-6.5-2-9.3h0c-.15-.59-.32-1.13-.49-1.69a33.87,33.87,0,0,0-4-8.7,6.32,6.32,0,0,1,2.58.95,36.44,36.44,0,0,1,3.17,7.5c.18.56.33,1.12.5,1.67a93.48,93.48,0,0,1,2,9.48c.1.59.19,1.16.29,1.74.45,2.82.89,5.8,1.36,9C943.88,1286.41,943.89,1286.52,943.91,1286.65Z"/><path class="cls-58" d="M962.75,1293c-.61-.09-1.22-.21-1.83-.34a101.92,101.92,0,0,0-5.27-16.7c-.24-.56-.47-1.12-.69-1.66-1.6-3.78-3.3-7.36-5-10.57-.26-.53-.54-1-.8-1.55-2.62-4.94-5-9-6.68-11.55a12.48,12.48,0,0,1,1.46-.92c1.69,2.68,4.2,6.82,6.88,11.91l.82,1.56c1.7,3.33,3.43,7,5.06,10.86l.68,1.65A100,100,0,0,1,962.75,1293Z"/><path class="cls-58" d="M977,1294.67a153.62,153.62,0,0,0-9.69-20.8c-.29-.55-.59-1.06-.87-1.58-2.45-4.37-5-8.53-7.33-12.23-.31-.49-.61-1-.93-1.45-2.88-4.45-5.46-8.15-7.36-10.65l1.27,0c.39,0,.75.06,1.11.11,1.93,2.55,4.2,5.88,6.64,9.69l.92,1.47c2.43,3.87,5,8.17,7.44,12.65.28.51.57,1,.85,1.59,2.89,5.3,5.57,10.79,7.76,16v0C976.93,1291.57,977,1293.36,977,1294.67Z"/><path class="cls-58" d="M965.86,1256.37c-1.42.9-3.14,1.89-5.1,2.89-.53.27-1.09.54-1.65.8a66.35,66.35,0,0,1-7.45,3.07l-1.68.55a67.14,67.14,0,0,1-9.81,2.35l-1.72.27h0a66.59,66.59,0,0,1-8.4.55l-.57-1.73a60.87,60.87,0,0,0,8.48-.51l1.73-.25a59.74,59.74,0,0,0,9.51-2.23c.57-.18,1.13-.35,1.66-.56a64.33,64.33,0,0,0,7.34-3l1.66-.82c1.94-1,3.59-1.93,5-2.8A16.58,16.58,0,0,1,965.86,1256.37Z"/><path class="cls-58" d="M973.61,1272.48c-1.33.31-2.87.66-4.56,1-.55.13-1.14.25-1.74.37-3,.61-6.32,1.23-9.91,1.77-.57.1-1.16.18-1.75.27-4.18.6-8.62,1.09-13.15,1.34-.57,0-1.16.06-1.74.07h0c-1.53.07-3.08.1-4.65.1-.88,0-1.77,0-2.65,0l-.55-1.77c2.49.1,5,.09,7.58,0,.58,0,1.16,0,1.75-.09,4.36-.21,8.68-.69,12.75-1.26.59-.07,1.19-.15,1.76-.26,3.53-.52,6.8-1.11,9.72-1.7l1.76-.38c1.77-.38,3.39-.75,4.79-1.08.21.51.38,1,.57,1.49A1.56,1.56,0,0,1,973.61,1272.48Z"/></g></g></svg>