<svg id="Layer_1" data-name="Layer 1" xmlns="http://www.w3.org/2000/svg" viewBox="0 0 1125 2436"><defs><style>.cls-1{fill:#cf9eac;}.cls-2{fill:#ce6428;}.cls-3{fill:#263b7f;}.cls-4{fill:#212a60;}.cls-5{fill:#a6ddeb;}.cls-6{fill:#d64e27;}.cls-7{fill:#be3626;}.cls-8{fill:#f1b5ab;}.cls-9{fill:#f5948d;}.cls-10{fill:#f79738;}.cls-11{fill:#a6d6b4;}.cls-12{fill:#983222;}.cls-13{fill:#fff;}.cls-14{fill:#66c8ce;}.cls-15{fill:#1e1724;}.cls-16{fill:#e18726;}.cls-17{fill:#a0d0c5;}.cls-18{fill:#b5be9f;}.cls-19{fill:#8ed5e7;}.cls-20{fill:#e78837;}.cls-21{fill:#bd8346;}.cls-22{fill:#d55527;}.cls-23{fill:#9fdbed;}.cls-24{fill:#e79548;}.cls-25{fill:#e7863d;}.cls-26{fill:#dcac57;}.cls-27{fill:#b6a4a4;}.cls-28{fill:#e37826;}.cls-29{fill:#ebf7fd;}</style></defs><path class="cls-1" d="M0,1185.5c39.9-7.33,99.21-24.29,138.83-69.74,60.42-69.33,21.89-144,69.92-205.62,28.21-36.21,92.13-75.44,256.68-68.83C653.36,826.12,741.91,766,788,714.5c104.74-116.93,22.6-224.89,149.82-393.11,62.27-82.34,116.49-102.16,156.81-199.27C1125.43,48,1127.29-21,1123.64-69H0Z"/><rect class="cls-2" x="572.91" y="743.35" width="22.14" height="131.64"/><rect class="cls-2" x="663.58" y="741.74" width="22.14" height="131.64"/><rect class="cls-2" x="601.38" y="743.35" width="22.13" height="131.64"/><path class="cls-3" d="M450.44,901.69a60.73,60.73,0,0,1-16,13.94,66.49,66.49,0,0,1-8.83,4.7c-1.35-1.9-2.21-3.06-2.21-3.06s-1.12-2.06-2.75-5.44c-.23-.43-.46-.93-.69-1.42a.21.21,0,0,0,0-.11c-.26-.53-.53-1.1-.81-1.69-.67-1.48-1.41-3.08-2.17-4.83-1.33-3-2.72-6.43-4-9.95-1.11-3.05-2.21-5.58-3.22-7.68a1.82,1.82,0,0,1-.15-.27c-.15-.32-.31-.63-.44-.92-.49-.93-.93-1.76-1.37-2.5-.3-.5-.59-1-.89-1.43-.58-.9-1.14-1.65-1.65-2.3-.16-.21-.3-.39-.48-.59a34.53,34.53,0,0,0,15.84-2.29,58.4,58.4,0,0,0,10-5.52c5.44-3.61,9.87-7.32,9.87-7.32,0,7.32,2.91,18.08,5.61,26.42C448.33,896.42,450.44,901.69,450.44,901.69Z"/><path class="cls-4" d="M450.44,901.69a60.73,60.73,0,0,1-16,13.94,66.49,66.49,0,0,1-8.83,4.7c-1.35-1.9-2.21-3.06-2.21-3.06s-3-5.6-6.46-13.49c12.85-1.79,21.53-9.57,29.08-14.35C448.33,896.42,450.44,901.69,450.44,901.69Z"/><path class="cls-3" d="M364.19,924c0,.9-.07,1.79-.13,2.66,0,.29,0,.56-.06.86a43.38,43.38,0,0,1-.89,6c-.1.48-.23,1-.37,1.43s-.37,1.16-.55,1.71c-.1.29-.21.58-.31.84s-.24.51-.35.75-.32.67-.48,1a17.35,17.35,0,0,1-2.28,3.37l-.63.69a8.71,8.71,0,0,1-.85.76,7.07,7.07,0,0,1-.78.67c-.15.12-.31.23-.48.35s-.66.45-1,.66a17.13,17.13,0,0,1-3.63,1.71c-.79-1.54-1.4-2.7-1.72-3.3-.14-.3-.23-.47-.23-.47l-.34.4-1.87,2.28-.76.9-3.72,4.49a92.81,92.81,0,0,0-6-9.56,91.7,91.7,0,0,0-17.89-19.24s1.57-2,4.2-5.36c.21-.24.42-.55.66-.81,4.7-5.93,12.31-15.39,20.43-25,.52-.64,1.07-1.27,1.6-1.9,1.18-1.4,2.39-2.63,3.59-3.8a21.9,21.9,0,0,1,3.41,2.55,10.46,10.46,0,0,1,.8.74c.21.19.42.41.66.63s.31.31.48.48a31.25,31.25,0,0,1,2.78,3.29c.26.34.53.72.78,1.09s.53.79.79,1.21c.5.81,1,1.68,1.45,2.62.21.47.44.93.66,1.43a1.31,1.31,0,0,1,.05.15c.16.33.28.67.43,1,.23.61.47,1.27.65,1.92.15.43.27.92.4,1.37s.28,1.1.41,1.69a7.74,7.74,0,0,1,.14.84,14.1,14.1,0,0,1,.23,1.4c.08.6.17,1.26.21,1.91A132.91,132.91,0,0,1,364.19,924Z"/><path class="cls-3" d="M421.64,1042.66l-.12,1.58c-16.87,6-41,4.86-47.49,4.41.43-1.25.79-2.44,1.18-3.69.89-2.8,1.74-5.59,2.41-8.31,7.92-30.82,17.66-105.67,17.92-106.48s-12.1-19-17.65-29a23.73,23.73,0,0,1-1.81-4.19c-.17-.48-.34-1-.49-1.51s-.27-1-.42-1.52c-.44-1.79-.77-3.66-1-5.44-.06-.46-.13-.9-.16-1.35s-.09-.74-.14-1.12-.1-1-.15-1.47c-.09-1.22-.16-2.38-.19-3.48,0-.46-.05-.93-.05-1.35,0-.68,0-1.29,0-1.85V876.8c0-.78,0-1.44,0-2,0-.32,0-.56,0-.77,0-.41,0-.61,0-.61a31.81,31.81,0,0,1,4.22-.28c4.56.06,11-.42,17.82,2.68.7.29,1.44.56,2.15.82,0,.31.11.74.21,1.25.05.25.09.53.13.81a1.46,1.46,0,0,0,0,.31c.07.34.13.67.17,1,.14.87.32,1.89.51,3,.06.42.14.86.21,1.32,0,.22.06.41.1.62.09.53.19,1.07.27,1.64,0,.21.08.44.11.65.18,1,.36,2.07.53,3.19,0,.14,0,.31.08.48.13.7.24,1.42.35,2.13s.22,1.41.35,2.13c.21,1.35.44,2.73.67,4.11.11.74.23,1.5.36,2.26.19,1.1.36,2.17.53,3.27a.25.25,0,0,0,0,.12l.51,3.16c.63,4,1.26,8,1.81,11.64.16,1.14.34,2.26.48,3.34s.3,2.11.45,3.1c0,0,15.43,18.44,17.86,44.8C425.46,993,423.79,1019.36,421.64,1042.66Z"/><path class="cls-4" d="M430.58,870.33c-1.05,6.71-11.41,14.66-20.85,15.82h0a16.7,16.7,0,0,1-4.95-.08c-2.06-.36-3.94-.73-5.69-1.05-8.13-1.52-13.55-1.77-21.52,6.64-.8.84-1.59,1.61-2.37,2.32-4.91,4.55-9.44,6.52-14,6.28-3.4-.17-6.83-1.58-10.39-4.06-2.76-2-4.87-3.44-6.66-4.43.52-.64,1.07-1.27,1.6-1.9,1.18-1.4,2.39-2.63,3.59-3.8,9.39-9.21,18.74-11.89,24.17-12.62a31.81,31.81,0,0,1,4.22-.28c4.56.06,11-.42,17.82,2.68.7.29,1.44.56,2.15.82a28.1,28.1,0,0,0,7.06,1.47,34.53,34.53,0,0,0,15.84-2.29A58.4,58.4,0,0,0,430.58,870.33Z"/><path class="cls-5" d="M395.54,930.17c-.26.81-10,75.66-17.92,106.48-.67,2.72-1.52,5.51-2.41,8.31-.39,1.25-.75,2.44-1.18,3.69-9.58,28.36-26.71,59.17-26.71,59.17a158.15,158.15,0,0,1-39-3c-2-.39-3.74-.8-5.21-1.17-3.63-.9-5.61-1.63-5.61-1.63s11.87-39.78,32.69-71.41,33.22-37.17,35.06-40.06-.29-11.59-5-22.66-8.87-20.48-8.87-20.48a17.13,17.13,0,0,0,3.63-1.71c.36-.21.7-.44,1-.66s.33-.23.48-.35a6,6,0,0,0,.47-.38c.11-.09.21-.19.31-.29a8.71,8.71,0,0,0,.85-.76l.63-.69c.21-.24.4-.47.59-.72a17.28,17.28,0,0,0,1.69-2.65c.16-.32.33-.66.48-1s.21-.5.35-.75.21-.55.31-.84c.18-.55.38-1.12.55-1.71s.27-.95.37-1.43a43.38,43.38,0,0,0,.89-6c0-.27,0-.57.06-.86.06-.87.11-1.76.13-2.66a132.91,132.91,0,0,0-.53-13.58c0-.65-.13-1.31-.21-1.91a14.1,14.1,0,0,0-.23-1.4c-.05-.29-.09-.56-.14-.84-.13-.59-.26-1.14-.41-1.69s-.25-.94-.4-1.37c-.18-.65-.42-1.31-.65-1.92-.15-.36-.27-.7-.43-1a1.31,1.31,0,0,0-.05-.15c-.22-.5-.45-1-.66-1.43-.46-.94-1-1.81-1.45-2.62-.26-.42-.51-.82-.79-1.21s-.52-.75-.78-1.09a31.25,31.25,0,0,0-2.78-3.29l-.48-.48c-.24-.22-.45-.44-.66-.63a10.46,10.46,0,0,0-.8-.74,21.9,21.9,0,0,0-3.41-2.55c9.39-9.21,18.74-11.89,24.17-12.62,0,0,0,.2,0,.61,0,.21,0,.45,0,.77,0,.53,0,1.19,0,2v1.12c0,.56,0,1.17,0,1.85,0,.42,0,.89.05,1.35,0,1.1.1,2.26.19,3.48.05.48.1,1,.15,1.47s.1.74.14,1.12.1.89.16,1.35c.26,1.78.59,3.65,1,5.44.15.5.28,1,.42,1.52s.32,1,.49,1.51a23.73,23.73,0,0,0,1.81,4.19C383.44,911.2,395.81,929.4,395.54,930.17Z"/><path class="cls-5" d="M444.58,1077.76c-4.28,9.79-13.58,18.92-20.66,24.89-.57.48-1.12.94-1.66,1.36-4.33,3.55-7.47,5.65-7.47,5.65s2.89-27.13,5.54-53.23c.39-3.93.78-8,1.19-12.19l.12-1.58c2.15-23.3,3.82-49.71,1.8-71.62-2.43-26.36-17.86-44.8-17.86-44.8-.15-1-.3-2-.45-3.1s-.32-2.2-.48-3.34c-.55-3.64-1.18-7.63-1.81-11.64l-.51-3.16a.25.25,0,0,1,0-.12c-.17-1.1-.34-2.17-.53-3.27-.13-.76-.25-1.52-.36-2.26-.23-1.38-.46-2.76-.67-4.11-.13-.72-.23-1.44-.35-2.13s-.24-1.43-.35-2.13c0-.17-.06-.34-.08-.48-.17-1.12-.35-2.17-.53-3.19,0-.21-.07-.44-.11-.65-.08-.57-.18-1.11-.27-1.64,0-.21-.07-.4-.1-.62-.07-.46-.15-.9-.21-1.32-.19-1.12-.37-2.14-.51-3,0-.36-.1-.69-.17-1a1.46,1.46,0,0,1,0-.31c0-.28-.08-.56-.13-.81-.1-.51-.17-.94-.21-1.25a28.1,28.1,0,0,0,7.06,1.47c.15.2.32.38.48.59.51.65,1.07,1.4,1.65,2.3.3.44.59.93.89,1.43.44.74.88,1.57,1.37,2.5l.44.92a1.59,1.59,0,0,1,.12.27h0c1,2.1,2.11,4.63,3.22,7.68,1.31,3.52,2.7,6.91,4,9.95.76,1.75,1.5,3.35,2.17,4.83.28.59.55,1.16.81,1.69a.21.21,0,0,1,0,.11c.23.49.46,1,.69,1.42,1.63,3.38,2.75,5.44,2.75,5.44s.86,1.16,2.21,3.06c4.19,6,13.09,19.31,14.61,27.52a15.31,15.31,0,0,1-1.73,10.8,15.7,15.7,0,0,1-4.91,5.26s.12.3.3.89h0c.84,2.2,3,8.28,5.56,17a326.73,326.73,0,0,1,9,39.3C453.8,1053.27,452,1060.9,444.58,1077.76Z"/><path class="cls-4" d="M359.91,941.07a16.54,16.54,0,0,1-8.53,6.33c-.79-1.54-1.4-2.7-1.72-3.3-.14-.3-.23-.47-.23-.47l-.34.4-1.87,2.28-.76.9-3.72,4.49a92.81,92.81,0,0,0-6-9.56c6.47-8.09,19.08-23.35,20.32-25.41,1.32-2.26,4.41-.15,2.51,10C358.75,931.19,359.17,936.49,359.91,941.07Z"/><path class="cls-6" d="M422.33,775.66c-2.63,7.2-6.12,9.48-9.5,10.47-1-1.55-1.92-3.13-2.87-4.74-5.6-9.43-11.11-18.93-18.89-20.49-9.66-1.92-13.87.88-14.23,4.93s-2,8.29-3.69,9.66c-5.16,4.3-8.43,6.15-13.7,5.43s-8.44-.16-9.13,6.69a68.12,68.12,0,0,0,.69,12.16c1,8.56,2.63,17.89,2.63,17.89s-6-6.86-10.71-5.28-3.88,21.44,6,25.84,15.82,1.58,15.82,1.58a44.82,44.82,0,0,0,9.82,9.91c-.93,10-15.45,19.07-22,17.67s-9.85-7.56-13.35-12.14S321,854.38,303,841s-12.29-31.44-8.07-36.7,4-8.1.17-10.74-.89-8.25,1.94-10.36-5.63-9.31-2.3-18.63a17.16,17.16,0,0,1,2.47-4.64c4.13-5.47,11.49-7.15,24.25-8.71,15.8-1.94,5.27-25.66,20.55-34.43s27.77-1.94,32.51,2.8,13.51-7.9,26.69-4S415.85,737.9,415,744c-.76,5.46-.84,9.67,2.11,13v0a11,11,0,0,0,1.24,1.21C422.53,761.78,425,768.47,422.33,775.66Z"/><path class="cls-7" d="M374.54,849.71c-.93,10-15.45,19.07-22,17.67s-9.85-7.56-13.35-12.14S321,854.38,303,841s-12.29-31.44-8.07-36.7,4-8.1.17-10.74-.89-8.25,1.94-10.36-5.63-9.31-2.3-18.63a17.16,17.16,0,0,1,2.47-4.64c-.89,7.57,2.4,15.92,9.85,19.75,11.24,5.8,13.66,6.49,15.95,19.15,1.84,10.12,19.82,9,28,.92,1,8.56,2.63,17.89,2.63,17.89s-6-6.86-10.71-5.28-3.88,21.44,6,25.84,15.82,1.58,15.82,1.58A44.82,44.82,0,0,0,374.54,849.71Z"/><path class="cls-7" d="M422.33,775.66c-2.63,7.2-6.12,9.48-9.5,10.47-1-1.55-1.92-3.13-2.87-4.74,5-7,7-18.11,7.11-24.33a11,11,0,0,0,1.24,1.21C422.53,761.78,425,768.47,422.33,775.66Z"/><path class="cls-8" d="M530.92,741.06s-1.2,16.72-3.86,41.8c-2.9,27.41-17.92,58.26-33.9,78.38-10.35,13-42.72,40.45-42.72,40.45a106.45,106.45,0,0,1-4.59-11.92c-.87-2.64-1.72-5.59-2.43-8.69a116,116,0,0,1-3-18.07c3.15-1.58,27-22.52,41-42.19s35.21-70.1,35.92-77.49,1.07-23.72,1.23-25.46,8.43-6.16,10.18-4.41-3,6.15-3,6.15l.86,3.18s6.86-8.62,9.49-7.39-.76,6.07-1,6.47c.35-.25,3.75-2.55,5.43-1.55s-3.35,5.79-3.35,5.79a14.38,14.38,0,0,1,3.53.3,2.54,2.54,0,0,1,1.41.76C543,728.41,530.92,741.06,530.92,741.06Z"/><path class="cls-9" d="M530.92,741.06s-1.2,16.72-3.86,41.8c-2.9,27.41-17.92,58.26-33.9,78.38-10.35,13-42.72,40.45-42.72,40.45a106.45,106.45,0,0,1-4.59-11.92c9.09-6.25,27.53-19.43,38.34-30.79,14.77-15.5,28.12-43.69,32.32-63.68s11.25-57.23,11.25-57.23,7.86-7.09,13-11.66a2.54,2.54,0,0,1,1.41.76C543,728.41,530.92,741.06,530.92,741.06Z"/><path class="cls-8" d="M433.59,828.37c.56,13.25-8.74,25-23.42,28.7a42.47,42.47,0,0,1-12.42,1.17h-.08a42.11,42.11,0,0,1-23.13-8.53c-.25-.22-.48-.41-.74-.62a45.17,45.17,0,0,1-9.08-9.29s-6,2.8-15.82-1.58-10.71-24.25-6-25.84,10.71,5.28,10.71,5.28-4.05-23.19-3.32-30a14.58,14.58,0,0,1,.29-1.93c1.07-5,4.11-5.39,8.84-4.76,5.27.72,8.54-1.13,13.7-5.43,1.64-1.37,3.33-5.63,3.69-9.66s4.57-6.85,14.23-4.93c9.09,1.83,15.08,14.53,21.76,25.23.4.68.82,1.36,1.26,2C421.28,799.21,432.88,811.69,433.59,828.37Z"/><path class="cls-9" d="M410.17,857.07a42.47,42.47,0,0,1-12.42,1.17h-.08a42.11,42.11,0,0,1-23.13-8.53c-.25-.22-.48-.41-.74-.62a45.17,45.17,0,0,1-9.08-9.29s-6,2.8-15.82-1.58-10.71-24.25-6-25.84,10.71,5.28,10.71,5.28-4.05-23.19-3.32-30a14.58,14.58,0,0,1,.29-1.93C353,807.6,371.59,855.11,410.17,857.07Z"/><path class="cls-8" d="M397.93,904.1c-1.95.89-7.74-9-12.83-16.7a72,72,0,0,1-7.38-14.23,29.23,29.23,0,0,0-.31-7c-.87-6.33-2.87-13.79-3.61-17,.26.21.49.4.74.62a42.11,42.11,0,0,0,23.13,8.53,99.45,99.45,0,0,0-.27,10.64C397.63,883.52,399.36,903.46,397.93,904.1Z"/><path class="cls-9" d="M397.4,868.88c-5.37-.24-13.6-.91-20-2.75-.87-6.33-2.87-13.79-3.61-17,.26.21.49.4.74.62a42.11,42.11,0,0,0,23.13,8.53A99.45,99.45,0,0,0,397.4,868.88Z"/><path class="cls-8" d="M374.56,848.76l.08-.15C375.36,840.37,374.56,848.76,374.56,848.76Z"/><path class="cls-6" d="M362.43,810.27c-.61,0,.93-8.42,3.73-12.11s8.66-3.47,9.89-1.2a30.77,30.77,0,0,0-6.41,5.43C367,805.24,364,810.27,362.43,810.27Z"/><path class="cls-6" d="M393,787.08c-2.28.2-1.51-4.19,3.34-6.32a13.9,13.9,0,0,1,10.54,0S397.05,786.74,393,787.08Z"/><path class="cls-10" d="M423.92,1102.65c-1.54,13.41-5.65,47.75-9.4,70.27-1.76,10.58-6.68,37.59-12.19,67.36a.62.62,0,0,0,0,.19c-9.32,50.24-20.2,108.22-20.2,108.22l-5,4-.23.17s-17.93-62.19-17.93-91.16S371,1218,371,1218s-1.05-19.48-2.11-43.47-2.36-53.25-2.36-53.25c-7.66,10.56-60.64,89.34-76.7,115.43S230,1331.57,230,1331.57l-3.42-10s2-22.74,6.43-47.56c3.51-19.8,8.51-40.92,15.19-52.87,15-26.86,34.51-36.1,34.51-36.1s3.72-22.66,7.93-43.23a177.89,177.89,0,0,1,6.14-22c2.47-7.13,4.87-12.92,6.3-16.12a155.47,155.47,0,0,0,44.21,4.18h0c.51-1,17.25-31.25,26.69-59.16,5.82.4,25.9,1.36,42.13-2.8a53.19,53.19,0,0,0,5.36-1.61c-.41,4.18-.8,8.26-1.19,12.19-2.65,26.1-5.54,53.23-5.54,53.23S418.78,1107,423.92,1102.65Z"/><path class="cls-3" d="M226.61,1321.57s-8.6-.72-13.53,1c0,0-3.51,16.5-4,26.18s1,17,1.76,17.38S230,1331.57,230,1331.57Z"/><path class="cls-3" d="M376.84,1352.91s7.73-8.67,14.76-8.34S408.3,1356,408.3,1356H377.89Z"/><path class="cls-11" d="M531,689.57s-3.68-25-6.84-41.38-7.12-34.26-5.81-34.78,7.38,16.07,7.38,16.07-1.84-18.44,1.59-17.65S531,630.54,531,629.75s3.17-14.5,4.48-19.78,1.32-7.63,3.16-7.11,3.57,26.89,3.57,26.89,2.76-12.39,3.29-16.34,2.37-5.8,3.42-1.58,1.58,14.49,1.58,14.49,3.7-7.64,4.23-11.33,1-5.54,2.63-5-.53,21.62,0,20.83,8.7-20.83,10.8-19-2.63,20.55-2.63,20.55,7.91-17.13,10.28-14.76-4.48,21.88-4.48,21.88,9.75-14,13.44-10.28-12.13,24.25-21.08,35-25.05,31.1-25.05,31.1Z"/><path class="cls-10" d="M525.74,709.87l8.7,2.7,6.33-23.26-1.85-2.37s.79-7.12.26-8.17S536,677.1,534.44,684l-4.24.13Z"/><polygon class="cls-6" points="527.9 710.53 516.51 753.09 522.22 755.46 531.8 711.74 527.9 710.53"/><path class="cls-12" d="M359.05,833.74a.51.51,0,0,1-.39-.19c-4.29-4.79-11.36-11.36-11.44-11.43a.52.52,0,0,1,0-.74.53.53,0,0,1,.74,0c.07.06,7.18,6.67,11.51,11.51a.52.52,0,0,1-.05.74A.54.54,0,0,1,359.05,833.74Z"/><path class="cls-12" d="M353.05,832.85a1.91,1.91,0,0,1-1.12-.4c-2.4-1.69-.26-6.31-.17-6.49a.53.53,0,0,1,.7-.26.53.53,0,0,1,.26.7c-.53,1.11-1.58,4.21-.18,5.19.36.24.57.21.7.16.71-.29,1.26-2,1.42-2.76a.53.53,0,0,1,1,.21c-.06.3-.62,3-2.06,3.52A1.46,1.46,0,0,1,353.05,832.85Z"/><path class="cls-12" d="M397.9,828l-1.18,0a.55.55,0,0,1-.51-.56.51.51,0,0,1,.55-.5c13.14.59,16.76-9.23,17.49-11.91-2.46.09-10.58.31-12.1,0-2.43-.56-9.27-24.84-9.22-25a.53.53,0,0,1,.61-.43.54.54,0,0,1,.44.54c.14,2,7,22.93,8.48,23.94,1.28.28,9.42.07,12.44,0a.48.48,0,0,1,.42.19.5.5,0,0,1,.12.44C415.41,814.72,412.68,828,397.9,828Z"/><path class="cls-13" d="M389.22,836.5h22s-2.24,8.57-11,9.09S389.22,836.5,389.22,836.5Z"/><path class="cls-14" d="M365.77,970s6.56,16.48,4.16,23.18-24.19,24.25-39.64,53.41c-10.38,19.55-18.05,44.13-22,58.23-2-.39-3.74-.8-5.21-1.17-3.63-.9-5.61-1.63-5.61-1.63s11.87-39.78,32.69-71.41,33.22-37.17,35.06-40.06-.29-11.59-5-22.66-8.87-20.48-8.87-20.48a17.13,17.13,0,0,0,3.63-1.71c.36-.21.7-.44,1-.66s.33-.23.48-.35a6,6,0,0,0,.47-.38c.11-.09.21-.19.31-.29a8.71,8.71,0,0,0,.85-.76l.63-.69c.21-.24.4-.47.59-.72.17,8,2.93,23.78,21.15,30.38C380.51,972.22,372.62,975.17,365.77,970Z"/><path class="cls-15" d="M383.07,809.82c.6,3.48-.12,6.51-1.59,6.76s-3.15-2.37-3.73-5.84.13-6.51,1.6-6.77S382.49,806.34,383.07,809.82Z"/><path class="cls-15" d="M409.56,794.86c.58,3.48-.13,6.51-1.61,6.75s-3.14-2.37-3.73-5.85.13-6.5,1.59-6.75S409,791.38,409.56,794.86Z"/><path class="cls-3" d="M373.41,876.8v1.12c-11.2,2.69-17.32,8.43-19.87,11.44a10.46,10.46,0,0,0-.8-.74C355.4,885.46,361.68,879.57,373.41,876.8Z"/><path class="cls-3" d="M407.77,882.46a37.22,37.22,0,0,0-9.53-2.39c0-.36-.1-.69-.17-1a32.26,32.26,0,0,1,8.81,2C407.18,881.47,407.47,882,407.77,882.46Z"/><path class="cls-3" d="M380,972.62a.2.2,0,0,1-.11,0c-25.06-5.7-23.86-27.78-23.84-28a.56.56,0,0,1,.56-.48.51.51,0,0,1,.49.55c-.06.88-1.14,21.43,23,26.92a.51.51,0,0,1,.39.63A.51.51,0,0,1,380,972.62Z"/><path class="cls-5" d="M349.43,944.16a.58.58,0,0,1-.35-.13.53.53,0,0,1,0-.75c1.58-1.81,9.57-11.27,10.81-19.38a.53.53,0,0,1,.6-.43.54.54,0,0,1,.44.61c-1.3,8.38-9.44,18-11.06,19.9A.53.53,0,0,1,349.43,944.16Z"/><path class="cls-5" d="M347.22,946.31l-.76.9c-5.08-12.81-18.22-25.15-23.41-29.67.21-.24.42-.55.66-.81C328.85,921.21,341.9,933.45,347.22,946.31Z"/><path class="cls-3" d="M427.81,966.81a10.76,10.76,0,0,1-2.23-.23l-.15,0a.51.51,0,0,1-.51-.54.53.53,0,0,1,.54-.51,1.59,1.59,0,0,1,.33,0c4.67.93,8.94-1.44,12-6.72a.52.52,0,0,1,.72-.2.54.54,0,0,1,.19.73C435.88,964.23,432.06,966.81,427.81,966.81Z"/><path class="cls-5" d="M401.75,970.51a.53.53,0,0,1-.45-.25.53.53,0,0,1,.17-.73,25.28,25.28,0,0,1,15-3,.53.53,0,0,1,.47.59.54.54,0,0,1-.59.45A24.76,24.76,0,0,0,402,970.43.53.53,0,0,1,401.75,970.51Z"/><path class="cls-8" d="M342.74,951.7c-5.26,7.91-39.34,43.06-39.34,43.06-1.77,11.42-24.43,35.48-35.67,47.61S246.29,1068,246.29,1068s4.75,25.47,3,26.72c-.87.61-2.34-1.3-3.61-3.37s-2.36-4.37-2.36-4.37-.53,17.23-3.35,17.06-1.74-18.29-1.74-18.29-3.34,18.79-6.17,18.26,1.42-18.44,1.42-18.44-5.63,13.53-7.91,12.65,3.23-13.37,3.51-14c-.47.52-8.65,9.42-10.19,7.89s11.06-19,12.12-22,12.49-35.14,27.77-61.67S289.16,973,289.16,973c8.78-18.63,29.69-49.55,29.69-50.08a80.91,80.91,0,0,1,12.3,11.41,78.3,78.3,0,0,1,6.12,8.2C340.51,947.42,342.74,951.7,342.74,951.7Z"/><path class="cls-9" d="M342.74,951.7c-5.26,7.91-39.34,43.06-39.34,43.06-1.77,11.42-24.43,35.48-35.67,47.61S246.29,1068,246.29,1068s4.75,25.47,3,26.72c-.87.61-2.34-1.3-3.61-3.37.17-12-.44-25.46-.44-25.46L299,993.17c8-10.9,30.3-40.18,38.27-50.66C340.51,947.42,342.74,951.7,342.74,951.7Z"/><path class="cls-14" d="M444.58,1077.76c-4.28,9.79-13.58,18.92-20.66,24.89-.57.48-1.12.94-1.66,1.36,5.86-18.13,17.26-55,18.19-70.07.85-13.79-.19-37.29-1-52.13a326.73,326.73,0,0,1,9,39.3C453.8,1053.27,452,1060.9,444.58,1077.76Z"/><path class="cls-16" d="M423.92,1102.65c-1.54,13.41-5.65,47.75-9.4,70.27-1.76,10.58-6.68,37.59-12.19,67.36,1.83-22.62,4.21-50.6,6.73-75.79,4.34-43.75,6.46-98,7.1-118.64a53.19,53.19,0,0,0,5.36-1.61c-.41,4.18-.8,8.26-1.19,12.19-2.65,26.1-5.54,53.23-5.54,53.23S418.78,1107,423.92,1102.65Z"/><path class="cls-16" d="M377.07,1352.73l-.23.17s-17.93-62.19-17.93-91.16S371,1218,371,1218s-1.05-19.48-2.11-43.47-2.36-53.25-2.36-53.25c-7.66,10.56-60.64,89.34-76.7,115.43S230,1331.57,230,1331.57l-3.42-10s2-22.74,6.43-47.56c16.29-16.07,43.33-43.89,64.46-71,32.4-41.66,70.69-83.81,70.69-83.81L380.53,1223s-11.07,30.57-12.26,61.67C367.31,1310.47,374.56,1342.53,377.07,1352.73Z"/><path class="cls-16" d="M347.32,1107.82c-18.55,16.19-42.44,13.46-50.51,11.94,2.47-7.13,4.87-12.92,6.3-16.12A155.47,155.47,0,0,0,347.32,1107.82Z"/><path class="cls-16" d="M374,1048.65s-4,39.41-26.69,59.16C347.85,1106.86,364.59,1076.56,374,1048.65Z"/><rect class="cls-17" x="547.8" y="642.15" width="16.86" height="685.47"/><rect class="cls-17" x="899.19" y="642.15" width="16.86" height="685.47"/><rect class="cls-17" x="551.71" y="874.99" width="360.13" height="15.64"/><rect class="cls-17" x="551.71" y="640.81" width="363.3" height="15.63"/><rect class="cls-17" x="551.71" y="1095.66" width="355.91" height="15.63"/><rect class="cls-17" x="556.23" y="1312" width="355.61" height="15.62"/><polygon class="cls-18" points="902.2 1349.59 567.67 1349.59 563.46 1327.62 906.42 1327.62 902.2 1349.59"/><polygon class="cls-19" points="688.88 803.97 688.88 874.99 568.17 874.99 568.17 800.35 688.88 803.97"/><rect class="cls-20" x="701.53" y="731.78" width="43.22" height="143.21"/><polygon class="cls-3" points="707.33 853.37 707.33 868.81 737.05 868.81 737.05 853.76 707.33 853.37"/><rect class="cls-20" x="749.67" y="731.78" width="43.22" height="143.21"/><polygon class="cls-3" points="755.47 853.37 755.47 868.81 785.19 868.81 785.19 853.76 755.47 853.37"/><rect class="cls-20" x="797.81" y="731.78" width="43.22" height="143.21"/><polygon class="cls-3" points="803.62 853.37 803.62 868.81 833.33 868.81 833.33 853.76 803.62 853.37"/><rect class="cls-20" x="845.96" y="731.78" width="43.22" height="143.21"/><polygon class="cls-3" points="851.75 853.37 851.75 868.81 881.47 868.81 881.47 853.76 851.75 853.37"/><path class="cls-21" d="M884.44,984.89l-2.75,18-.25,1.62-4.13,27.14-.24,1.58-4.62,30.32-.24,1.55-4.64,30.53H727.88s-2-13.22-4.63-30.53c-.09-.5-.17-1-.24-1.55-1.43-9.5-3-20.09-4.49-30.32,0-.53-.15-1.06-.21-1.58-1.43-9.85-2.76-19.35-3.77-27.14-.09-.55-.15-1.08-.22-1.62-1.37-10.46-2.12-17.61-1.72-18s9.13-.59,22.56-.68c.53,0,1.06,0,1.6,0,9.51-.06,21.17-.08,33.74,0h1.58c13.91,0,28.88.11,43.18.18h1.58l33.86.26h1.6Z"/><polygon class="cls-22" points="644.6 971.06 683.61 1093.87 714.71 1082.7 674.65 963.72 644.6 971.06"/><polygon class="cls-23" points="635.12 963.72 674.65 1078.77 642.5 1093.87 604.02 971.06 635.12 963.72"/><polygon class="cls-22" points="601.38 971.06 636.7 1084.38 604.02 1093.87 568.17 976.32 601.38 971.06"/><rect class="cls-23" x="747.72" y="1156.06" width="35.32" height="155.95"/><rect class="cls-24" x="753.51" y="1296.14" width="23.72" height="11.73"/><rect class="cls-23" x="709.43" y="1156.06" width="35.32" height="155.95"/><rect class="cls-24" x="715.24" y="1296.14" width="23.72" height="11.73"/><rect class="cls-23" x="786" y="1156.06" width="35.31" height="155.95"/><rect class="cls-24" x="791.8" y="1296.14" width="23.71" height="11.73"/><rect class="cls-23" x="824.28" y="1156.06" width="35.31" height="155.95"/><rect class="cls-24" x="830.07" y="1296.14" width="23.72" height="11.73"/><rect class="cls-23" x="862.55" y="1156.06" width="35.32" height="155.95"/><rect class="cls-24" x="868.36" y="1296.14" width="23.71" height="11.73"/><rect class="cls-25" x="567.65" y="1181.36" width="138.51" height="130.64"/><rect class="cls-26" x="602.44" y="1246.68" width="65.89" height="21.65"/><polygon class="cls-26" points="706.16 1201.59 706.16 1203.14 567.65 1201.2 567.65 1199.65 706.16 1201.59"/><path class="cls-27" d="M881.69,1002.92l-.25,1.62H714.54c-.09-.55-.15-1.08-.22-1.62Z"/><path class="cls-27" d="M877.31,1031.68l-.24,1.58H718.52c0-.53-.15-1.06-.21-1.58Z"/><path class="cls-27" d="M872.45,1063.58l-.24,1.55h-149c-.09-.5-.17-1-.24-1.55Z"/><path class="cls-27" d="M748.17,1095.66h-1.58l-3.13-30.53-.16-1.55-3.11-30.32-.16-1.58-2.77-27.14-.18-1.62-1.92-18.71c.53,0,1.06,0,1.6,0l1.92,18.74.17,1.62,2.76,27.14.17,1.58,3.1,30.32.17,1.55Z"/><rect class="cls-27" x="770.5" y="984.15" width="1.59" height="111.52"/><path class="cls-27" d="M816.84,984.33c-.3,5.81-.61,12.08-.93,18.59,0,.54,0,1.09-.07,1.62-.43,8.77-.88,18-1.3,27.14,0,.52-.06,1-.06,1.58-.5,10.5-1,20.85-1.42,30.32,0,.52-.06,1-.07,1.55-.58,12.4-1,23.17-1.32,30.53h-1.58c.3-7.48.76-18.32,1.29-30.53,0-.5.06-1,.08-1.55.44-9.67.92-20.1,1.42-30.32,0-.53,0-1.06.06-1.58.45-9.53.91-18.84,1.33-27.14,0-.55,0-1.08.06-1.62.36-7.18.68-13.56.93-18.59Z"/><path class="cls-27" d="M852.3,984.59c-.55,5.66-1.18,11.85-1.81,18.33,0,.54-.11,1.09-.17,1.62-.84,8.72-1.75,17.94-2.64,27.14-.06.52-.13,1-.16,1.58-1,10.45-2,20.82-2.92,30.32-.06.52-.11,1-.16,1.55-1.16,12.37-2.16,23.17-2.79,30.53h-1.58c.63-7.5,1.63-18.39,2.79-30.53,0-.52.08-1,.14-1.55.91-9.73,1.92-20.16,2.92-30.32,0-.53.1-1.06.14-1.58,1-9.68,1.88-19.05,2.68-27.14,0-.55.1-1.08.15-1.62.76-7.58,1.39-13.93,1.81-18.33Z"/><path class="cls-20" d="M688.88,1079.51a.81.81,0,0,1-.35-.07.78.78,0,0,1-.4-.47L656.5,979.73a.84.84,0,0,1,.06-.62.79.79,0,0,1,.49-.39l12.13-3.15a.78.78,0,0,1,1,.52l32.16,98a.79.79,0,0,1-.5,1l-12.65,4.37A1.09,1.09,0,0,1,688.88,1079.51Zm-30.62-99.46,31.13,97.67,11.14-3.85-31.67-96.6Z"/><path class="cls-28" d="M628.53,1014.54a.78.78,0,0,1-.73-.48l-12.39-29.63a.79.79,0,0,1,0-.64.77.77,0,0,1,.48-.42l15.28-4.64a.79.79,0,0,1,1,.52l10.28,31.61a.89.89,0,0,1-.07.66.79.79,0,0,1-.53.37l-13.18,2.64ZM617.2,984.63,629,1012.85l11.66-2.33-9.75-30Z"/><path class="cls-28" d="M641.71,1049.86a.79.79,0,0,1-.75-.54l-9.76-27.93a.82.82,0,0,1,.06-.65.84.84,0,0,1,.52-.38l9.76-2.16a.77.77,0,0,1,.91.48l10.27,26.93a.82.82,0,0,1,0,.65.81.81,0,0,1-.48.39l-10.28,3.16A.68.68,0,0,1,641.71,1049.86ZM633,1021.7l9.21,26.38,8.74-2.69-9.73-25.5Z"/><path class="cls-28" d="M652,1080.32a.78.78,0,0,1-.73-.5l-8.75-22.56a.8.8,0,0,1,.44-1l10.18-4a.78.78,0,0,1,1,.44l10.17,25.41a.76.76,0,0,1,0,.7.78.78,0,0,1-.6.37l-11.59,1.19Zm-7.73-22.9,8.25,21.27,10-1L653,1054Z"/><polygon class="cls-29" points="688.88 814.82 688.88 816.4 568.17 812.13 568.17 810.55 688.88 814.82"/><path class="cls-29" d="M657.79,833.13a.75.75,0,0,0-.58-.22l-62.19,4a.78.78,0,0,0-.74.79v16.07a.79.79,0,0,0,.78.81h62.19a.8.8,0,0,0,.79-.81V833.7A.79.79,0,0,0,657.79,833.13ZM656.47,853H595.85V838.41l60.62-3.87Z"/><path class="cls-20" d="M578.37,994.2a.78.78,0,0,1-.71-.46l-4.41-9.27a.81.81,0,0,1,0-.68.88.88,0,0,1,.55-.43l25.82-6.05a.78.78,0,0,1,.94.58L603.2,988a.78.78,0,0,1-.08.6.84.84,0,0,1-.52.37l-24.06,5.2A1,1,0,0,1,578.37,994.2Zm-3.26-9.52,3.71,7.81,22.64-4.9L599.23,979Z"/><path class="cls-20" d="M606.48,1090.27a.79.79,0,0,1-.75-.53l-2.46-7a.81.81,0,0,1,0-.61.83.83,0,0,1,.45-.41l24.5-8.5a.79.79,0,0,1,1,.45l3.42,8.51a.76.76,0,0,1,0,.66.79.79,0,0,1-.49.4l-25.49,7A.69.69,0,0,1,606.48,1090.27ZM605,1083l1.94,5.52,23.92-6.53-2.82-7Z"/></svg>